<?xml version="1.0" encoding="utf-8"?>
<!-- Generator: Adobe Illustrator 17.0.2, SVG Export Plug-In . SVG Version: 6.00 Build 0)  -->
<!DOCTYPE svg PUBLIC "-//W3C//DTD SVG 1.1//EN" "http://www.w3.org/Graphics/SVG/1.1/DTD/svg11.dtd">
<svg version="1.1" id="Layer_1" xmlns="http://www.w3.org/2000/svg" xmlns:xlink="http://www.w3.org/1999/xlink" x="0px" y="0px"
	 width="200px" height="200px" viewBox="0 0 200 200" enable-background="new 0 0 200 200" xml:space="preserve">
<path fill="none" stroke="#3A3E3F" stroke-width="7.716" stroke-miterlimit="10" d="M129.238,173.452h-58.48
	c-6.892,0-16.305-5.436-19.753-11.405l-29.238-50.642c-3.446-5.967-3.446-16.84,0-22.808l29.239-50.644
	c3.448-5.967,12.861-11.405,19.753-11.405h58.478c6.892,0,16.305,5.436,19.753,11.405l29.241,50.644
	c3.446,5.967,3.446,16.84,0,22.808l-29.241,50.644C145.544,168.016,136.13,173.452,129.238,173.452L129.238,173.452z"/>
<path fill="#3A3E3F" d="M135.151,126.454v-8.641v-1.647v-15.908V95.19V71.76c-0.005-3.436-2.788-6.218-6.223-6.224
	c-3.435,0.006-6.216,2.783-6.228,6.218l0.002,28.507c0,0.449-0.205,0.847-0.522,1.115c-0.255,0.22-0.585,0.356-0.949,0.356
	c-0.567,0-1.055-0.325-1.3-0.797c-0.103-0.202-0.17-0.43-0.17-0.674V71.76c0-0.006,0-0.016,0-0.023V65.88
	c-0.006-3.438-2.787-6.218-6.224-6.224c-3.438,0.006-6.218,2.787-6.226,6.224v34.381h0.002c0,0.813-0.658,1.471-1.469,1.471
	c-0.813,0-1.471-0.658-1.471-1.471V84.881V54.119c-0.006-3.436-2.788-6.218-6.224-6.224c-3.436,0.006-6.22,2.788-6.224,6.224V65.87
	c0,0.003,0,0.008,0,0.011v34.381c0,0.002,0,0.002,0,0.002c0,0.351-0.128,0.669-0.335,0.921c-0.27,0.333-0.676,0.548-1.136,0.548
	c-0.527,0-0.986-0.28-1.246-0.698c-0.141-0.225-0.225-0.488-0.225-0.773v-0.002V65.881c-0.006-3.438-2.788-6.218-6.224-6.226
	c-3.438,0.008-6.218,2.788-6.226,6.226v29.31l0.002,0.002v5.069l0,0c0,0.002,0,0.003,0,0.003v15.901l0.018,8.24
	c0,0.656-0.438,1.238-1.068,1.418c-0.634,0.179-1.312-0.086-1.653-0.643l-13.336-21.714c-1.178-1.914-3.215-2.963-5.31-2.966
	c-1.112,0.002-2.232,0.297-3.254,0.925c-1.915,1.177-2.963,3.213-2.966,5.308c0.002,1.112,0.296,2.232,0.925,3.254l12.568,20.44
	c0.002,0.002,0.002,0.002,0.003,0.005l4.522,7.354l0.789,1.283c3.831,6.229,10.353,9.777,17.146,10.079l17.975,0.016l11.049,0.002
	c5.859-0.002,11.151-2.373,14.993-6.212c3.84-3.842,6.21-9.134,6.21-14.995v-1.506H135.151z"/>
</svg>
