<?xml version="1.0" encoding="utf-8"?>
<!-- Generator: Adobe Illustrator 17.0.2, SVG Export Plug-In . SVG Version: 6.00 Build 0)  -->
<!DOCTYPE svg PUBLIC "-//W3C//DTD SVG 1.1//EN" "http://www.w3.org/Graphics/SVG/1.1/DTD/svg11.dtd">
<svg version="1.1" id="Layer_1" xmlns="http://www.w3.org/2000/svg" xmlns:xlink="http://www.w3.org/1999/xlink" x="0px" y="0px"
	 width="200px" height="200px" viewBox="0 0 200 200" enable-background="new 0 0 200 200" xml:space="preserve">
<g>
	<path fill="#3A3E3F" d="M91.655,171.138c-25.992,0-54.722-22.435-54.722-63.203s27.634-79.073,72.233-79.073
		c33.106,0,53.901,22.436,53.901,55.269c0,27.634-10.944,54.174-35.296,54.174c-6.84,0-13.407-3.556-17.237-9.303
		c-4.378,4.926-9.85,9.303-16.964,9.303c-15.322,0-23.256-11.217-23.256-29.002c0-29.276,17.511-50.891,41.04-50.891
		c5.2,0,9.303,0.821,10.124,0.821c0.82-0.274,1.368-0.547,1.914-0.547c1.642,0,2.464,1.641,2.464,3.557
		c0,4.924-3.558,12.586-7.388,12.586c-1.368,0-4.378-0.821-7.934-0.821c-14.501,0-23.257,13.681-23.257,34.201
		c0,9.303,4.378,14.227,9.029,14.227s7.935-3.01,10.671-6.84V86.32c-0.822-0.548-1.096-1.095-1.096-1.368
		c0-1.642,4.378-2.736,8.756-2.736c4.378,0,8.755,1.094,8.755,4.104v25.445c0,9.303,3.832,11.492,6.294,11.492
		c10.944,0,16.143-18.333,16.143-38.853c0-25.993-13.407-39.126-36.938-39.126c-32.833,0-54.721,29.823-54.721,63.203
		c0,28.183,18.879,46.24,44.871,46.24C109.166,145.419,107.524,171.138,91.655,171.138z"/>
</g>
</svg>
