<?xml version="1.0" encoding="utf-8"?>
<!-- Generator: Adobe Illustrator 17.0.2, SVG Export Plug-In . SVG Version: 6.00 Build 0)  -->
<!DOCTYPE svg PUBLIC "-//W3C//DTD SVG 1.1//EN" "http://www.w3.org/Graphics/SVG/1.1/DTD/svg11.dtd">
<svg version="1.1" id="Layer_1" xmlns="http://www.w3.org/2000/svg" xmlns:xlink="http://www.w3.org/1999/xlink" x="0px" y="0px"
	 width="200px" height="200px" viewBox="0 0 200 200" enable-background="new 0 0 200 200" xml:space="preserve">
<g>
	<path fill="#3A3E3F" d="M114.857,48.003c0.694-1.776,1.068-3.71,1.068-5.73c0-8.794-7.128-15.923-15.924-15.923
		c-8.791,0-15.924,7.129-15.924,15.924c0,2.019,0.374,3.954,1.068,5.73c-28.013,6.689-48.84,31.884-48.84,61.948
		c0,35.178,28.519,63.696,63.696,63.696s63.697-28.519,63.697-63.696C163.697,79.889,142.87,54.694,114.857,48.003z M92.038,42.275
		c0-4.395,3.568-7.962,7.962-7.962c4.394,0,7.962,3.566,7.962,7.962c0,1.6-0.47,3.086-1.283,4.329
		c-2.192-0.233-4.423-0.348-6.679-0.348s-4.487,0.115-6.679,0.348C92.508,45.359,92.038,43.873,92.038,42.275z M151.754,109.953
		c0,28.532-23.091,51.67-51.599,51.753l-0.043,0.184l-0.046-0.184c-0.021,0-0.041,0-0.065,0c-28.53,0-51.67-23.091-51.753-51.603
		l-0.184-0.046l0.184-0.043c0-0.022,0-0.038,0-0.06c0-28.53,23.091-51.671,51.603-51.753l0.009-0.007l0.032-0.175l0.047,0.183
		c0.022,0,0.037,0,0.06,0c28.532,0,51.67,23.089,51.753,51.603l0.184,0.044l-0.184,0.044
		C151.754,109.913,151.754,109.931,151.754,109.953z"/>
	<path fill="#3A3E3F" d="M132.826,103.107c0.65,2.168,1.003,4.468,1.003,6.845c0,2.298-0.331,4.516-0.934,6.618l28.801-6.679
		c0-0.028,0-0.062,0-0.09L132.826,103.107z"/>
	<path fill="#3A3E3F" d="M100,143.782c-2.295,0-4.515-0.331-6.618-0.934l6.683,28.801c0.031,0,0.062,0,0.09,0l6.69-28.868
		C104.678,143.428,102.38,143.782,100,143.782z"/>
	<path fill="#3A3E3F" d="M68.16,109.953c0-2.295,0.333-4.516,0.934-6.618l-28.801,6.679c0,0.027,0,0.062,0,0.09l28.871,6.696
		C68.512,114.631,68.16,112.336,68.16,109.953z"/>
	<path fill="#3A3E3F" d="M100,76.124c2.301,0,4.518,0.333,6.618,0.932l-6.679-28.8c-0.028,0-0.062,0-0.09,0l-6.695,28.869
		C95.322,76.478,97.623,76.124,100,76.124z"/>
	<path fill="#3A3E3F" d="M72.387,84.036c-5.431-3.141-6.57-1.784-2.529,3.018l21.08,25.064c-0.797-2.864-0.246-5.908,1.852-8.406
		c2.095-2.498,4.997-3.574,7.955-3.285L72.387,84.036z"/>
	<path fill="#3A3E3F" d="M107.216,115.807c-2.098,2.497-5.007,3.57-7.972,3.278l28.371,16.396c5.426,3.143,6.568,1.786,2.528-3.023
		l-21.086-25.063C109.856,110.26,109.304,113.31,107.216,115.807z"/>
	<circle fill="#3A3E3F" cx="100.069" cy="109.639" r="11.96"/>
</g>
</svg>
