<?xml version="1.0" encoding="utf-8"?>
<!-- Generator: Adobe Illustrator 17.0.2, SVG Export Plug-In . SVG Version: 6.00 Build 0)  -->
<!DOCTYPE svg PUBLIC "-//W3C//DTD SVG 1.1//EN" "http://www.w3.org/Graphics/SVG/1.1/DTD/svg11.dtd">
<svg version="1.1" id="Layer_1" xmlns="http://www.w3.org/2000/svg" xmlns:xlink="http://www.w3.org/1999/xlink" x="0px" y="0px"
	 width="200px" height="100px" viewBox="0 0 200 100" enable-background="new 0 0 200 100" xml:space="preserve">
<path fill="#FFFFFF" d="M185.98,42.92c0,21.41-22.81,38.76-50.93,38.76c-14.63,0-27.82-4.69-37.1-12.22
	c-5.87,1.04-20.49-0.53-17.83-1.76c2.07-0.95,4.69-8.61,6.18-13.53v-0.01c-1.42-3.56-2.18-7.33-2.18-11.24
	c0-21.41,22.8-38.77,50.93-38.77C163.17,4.15,185.98,21.51,185.98,42.92z"/>
<g>
	<path fill="#FFFFFF" d="M46.259,22.239c0-2.53-2.051-4.58-4.58-4.58c-2.529,0-4.58,2.051-4.58,4.58c0,1.87,1.122,3.476,2.729,4.188
		L38.74,37.251h1.856h2.265h1.856l-1.091-10.874C45.181,25.645,46.259,24.071,46.259,22.239z"/>
	<path fill="#FFFFFF" d="M11.792,82.342V77.21c0-0.667,0.54-1.208,1.208-1.208h57.357c0.668,0,1.208,0.542,1.208,1.208v5.131"/>
	<path fill="#FFFFFF" d="M65.272,45.99c2.317,0,4.196,1.341,4.196,2.994v9.739c0,1.654-1.879,2.996-4.196,2.996"/>
	<path fill="#FFFFFF" d="M18.085,45.99c-2.317,0-4.196,1.341-4.196,2.994v9.739c0,1.654,1.879,2.996,4.196,2.996"/>
	<g>
		<circle fill="#FFFFFF" cx="28.974" cy="48.216" r="3.855"/>
		<circle fill="#FFFFFF" cx="54.363" cy="48.274" r="3.856"/>
		<path fill="#FFFFFF" d="M63.363,37.955h-43.37c-0.667,0-1.208,0.54-1.208,1.206v35.825h45.786V39.161
			C64.572,38.495,64.03,37.955,63.363,37.955z M28.741,71.061h-3.968c-0.667,0-1.208-0.541-1.208-1.208v-7.548
			c0-0.666,0.541-1.206,1.208-1.206h3.968V71.061z M23.535,48.274c0-3.014,2.443-5.46,5.459-5.46c3.014,0,5.458,2.445,5.458,5.46
			c0,3.015-2.444,5.459-5.458,5.459C25.978,53.733,23.535,51.29,23.535,48.274z M36.504,71.061h-5.175V61.1h5.175V71.061z
			 M44.266,71.061h-5.175V61.1h5.175V71.061z M52.028,71.061h-5.176V61.1h5.176V71.061z M59.792,69.854
			c0,0.667-0.542,1.208-1.208,1.208h-3.968V61.1h3.968c0.667,0,1.208,0.54,1.208,1.206V69.854z M54.363,53.733
			c-3.014,0-5.458-2.444-5.458-5.459c0-3.014,2.444-5.46,5.458-5.46c3.015,0,5.459,2.445,5.459,5.46
			C59.822,51.29,57.379,53.733,54.363,53.733z"/>
	</g>
</g>
<g>
	<path fill="#3A3E3F" d="M109.031,23.291c-0.289,0-0.546,0.056-0.77,0.168c-0.223,0.112-0.41,0.273-0.561,0.483
		c-0.152,0.21-0.267,0.465-0.345,0.767s-0.117,0.639-0.117,1.013c0,0.381,0.035,0.719,0.104,1.016
		c0.07,0.296,0.178,0.546,0.322,0.75c0.146,0.204,0.331,0.358,0.557,0.464c0.227,0.106,0.496,0.159,0.809,0.159
		c0.289,0,0.58-0.033,0.871-0.098c0.292-0.065,0.608-0.158,0.95-0.278v1.27c-0.156,0.065-0.312,0.121-0.464,0.166
		s-0.309,0.083-0.469,0.112s-0.323,0.051-0.49,0.066c-0.168,0.015-0.348,0.022-0.54,0.022c-0.55,0-1.026-0.088-1.431-0.264
		s-0.737-0.423-1.001-0.742s-0.459-0.703-0.586-1.152s-0.19-0.949-0.19-1.499c0-0.541,0.073-1.036,0.22-1.487
		s0.361-0.839,0.645-1.165s0.634-0.579,1.05-0.759s0.895-0.271,1.436-0.271c0.355,0,0.711,0.045,1.066,0.134
		c0.357,0.089,0.697,0.212,1.023,0.369l-0.488,1.23c-0.268-0.127-0.535-0.238-0.806-0.332S109.291,23.291,109.031,23.291z"/>
	<path fill="#3A3E3F" d="M115.101,23.711c0.039,0,0.082,0.001,0.13,0.002c0.047,0.001,0.092,0.005,0.137,0.01
		c0.043,0.005,0.084,0.01,0.121,0.015c0.038,0.005,0.066,0.011,0.086,0.017v1.396c-0.026-0.006-0.062-0.013-0.107-0.02
		s-0.094-0.012-0.145-0.017c-0.05-0.005-0.1-0.008-0.148-0.01s-0.09-0.002-0.122-0.002c-0.192,0-0.368,0.024-0.53,0.073
		c-0.16,0.049-0.299,0.128-0.414,0.237c-0.116,0.109-0.205,0.252-0.27,0.43c-0.062,0.177-0.095,0.395-0.095,0.652v2.778h-1.489
		v-5.459h1.128l0.22,0.82h0.073c0.078-0.14,0.163-0.267,0.254-0.381s0.192-0.211,0.306-0.291c0.111-0.08,0.238-0.142,0.381-0.186
		C114.756,23.733,114.918,23.711,115.101,23.711z"/>
	<path fill="#3A3E3F" d="M119.666,29.272l-0.288-0.742h-0.044c-0.107,0.146-0.215,0.272-0.322,0.378s-0.225,0.193-0.352,0.261
		s-0.27,0.119-0.427,0.151c-0.158,0.033-0.342,0.049-0.55,0.049c-0.222,0-0.427-0.035-0.615-0.105s-0.353-0.176-0.491-0.317
		c-0.138-0.142-0.246-0.321-0.324-0.537s-0.117-0.473-0.117-0.769c0-0.58,0.186-1.007,0.557-1.282s0.926-0.427,1.665-0.457
		l0.869-0.029v-0.41c0-0.225-0.065-0.391-0.195-0.498s-0.312-0.161-0.547-0.161s-0.463,0.034-0.687,0.103
		c-0.223,0.068-0.446,0.16-0.671,0.273l-0.483-0.986c0.273-0.153,0.576-0.273,0.908-0.361s0.681-0.132,1.045-0.132
		c0.681,0,1.202,0.16,1.564,0.479c0.363,0.319,0.545,0.804,0.545,1.455v3.638H119.666z M119.227,26.743l-0.493,0.02
		c-0.198,0.006-0.366,0.033-0.503,0.078s-0.247,0.106-0.329,0.183c-0.084,0.077-0.144,0.167-0.182,0.273
		c-0.037,0.106-0.056,0.224-0.056,0.354c0,0.228,0.056,0.39,0.166,0.486s0.256,0.144,0.435,0.144c0.137,0,0.264-0.023,0.381-0.071
		s0.219-0.117,0.305-0.21c0.087-0.093,0.154-0.207,0.203-0.342s0.073-0.291,0.073-0.466V26.743z"/>
	<path fill="#3A3E3F" d="M125.076,24.932h-1.108v4.341h-1.489v-4.341h-0.82v-0.718l0.82-0.4v-0.4c0-0.348,0.042-0.637,0.127-0.867
		s0.205-0.413,0.361-0.549s0.345-0.233,0.566-0.291s0.471-0.085,0.747-0.085c0.3,0,0.552,0.023,0.757,0.071s0.379,0.1,0.522,0.159
		l-0.352,1.094c-0.101-0.036-0.207-0.068-0.317-0.098s-0.241-0.044-0.391-0.044c-0.195,0-0.333,0.062-0.413,0.188
		c-0.079,0.125-0.119,0.286-0.119,0.481v0.342h1.108V24.932z"/>
	<path fill="#3A3E3F" d="M128.328,28.184c0.146,0,0.285-0.016,0.418-0.049c0.131-0.033,0.266-0.073,0.402-0.122v1.108
		c-0.14,0.072-0.313,0.131-0.52,0.178c-0.207,0.047-0.433,0.071-0.677,0.071c-0.237,0-0.459-0.028-0.664-0.083
		s-0.383-0.152-0.532-0.291s-0.268-0.324-0.354-0.557c-0.087-0.233-0.13-0.525-0.13-0.876v-2.632h-0.713v-0.63l0.82-0.498
		l0.43-1.152h0.952v1.162h1.328v1.118h-1.328v2.632c0,0.211,0.052,0.368,0.156,0.469S128.159,28.184,128.328,28.184z"/>
	<path fill="#3A3E3F" d="M132.649,29.37c-0.391,0-0.75-0.057-1.079-0.171s-0.612-0.286-0.85-0.515s-0.422-0.519-0.555-0.869
		c-0.131-0.35-0.197-0.761-0.197-1.233c0-0.479,0.061-0.897,0.181-1.255s0.289-0.657,0.505-0.896
		c0.217-0.239,0.478-0.419,0.781-0.54c0.305-0.121,0.643-0.181,1.014-0.181c0.361,0,0.688,0.055,0.979,0.164
		c0.292,0.109,0.539,0.27,0.742,0.481c0.204,0.211,0.36,0.471,0.469,0.779c0.109,0.308,0.164,0.66,0.164,1.057v0.723h-3.33
		c0.007,0.208,0.04,0.396,0.1,0.564c0.061,0.167,0.146,0.309,0.254,0.425c0.109,0.116,0.241,0.204,0.396,0.266
		c0.154,0.062,0.331,0.093,0.529,0.093c0.166,0,0.323-0.009,0.471-0.027c0.148-0.018,0.293-0.045,0.433-0.081
		s0.278-0.081,0.415-0.134s0.276-0.116,0.42-0.188v1.152c-0.13,0.068-0.262,0.126-0.393,0.173c-0.133,0.047-0.271,0.087-0.418,0.12
		s-0.305,0.056-0.474,0.071S132.852,29.37,132.649,29.37z M132.459,24.771c-0.264,0-0.482,0.093-0.656,0.278
		c-0.175,0.186-0.274,0.477-0.301,0.874h1.899c-0.003-0.166-0.024-0.319-0.063-0.459s-0.098-0.261-0.176-0.364
		s-0.176-0.183-0.293-0.242S132.615,24.771,132.459,24.771z"/>
	<path fill="#3A3E3F" d="M137.669,29.37c-0.28,0-0.535-0.06-0.767-0.181s-0.43-0.299-0.596-0.535s-0.295-0.53-0.389-0.881
		c-0.092-0.352-0.139-0.758-0.139-1.221c0-0.469,0.047-0.88,0.139-1.233c0.094-0.353,0.225-0.649,0.396-0.889
		c0.17-0.239,0.375-0.419,0.612-0.54s0.5-0.181,0.786-0.181c0.176,0,0.337,0.021,0.483,0.061s0.278,0.098,0.396,0.171
		s0.223,0.158,0.314,0.254c0.094,0.096,0.176,0.201,0.247,0.315h0.049c-0.02-0.127-0.037-0.255-0.054-0.386
		c-0.017-0.111-0.03-0.229-0.041-0.354c-0.012-0.125-0.018-0.242-0.018-0.349v-1.748h1.489v7.598h-1.138l-0.288-0.708h-0.063
		c-0.068,0.111-0.146,0.216-0.234,0.315s-0.189,0.185-0.305,0.256c-0.116,0.072-0.246,0.128-0.391,0.171
		C138.015,29.349,137.852,29.37,137.669,29.37z M138.211,28.184c0.176,0,0.325-0.03,0.449-0.09s0.224-0.151,0.301-0.273
		c0.076-0.122,0.133-0.274,0.17-0.457c0.038-0.182,0.059-0.396,0.062-0.64v-0.161c0-0.264-0.017-0.498-0.049-0.703
		s-0.086-0.377-0.161-0.515s-0.176-0.243-0.303-0.315s-0.286-0.107-0.479-0.107c-0.312,0-0.542,0.141-0.688,0.422
		s-0.22,0.691-0.22,1.228s0.074,0.94,0.223,1.208C137.663,28.049,137.896,28.184,138.211,28.184z"/>
	<path fill="#3A3E3F" d="M148.909,29.272l-0.42-1.909c-0.013-0.055-0.03-0.134-0.051-0.237c-0.021-0.103-0.045-0.218-0.071-0.347
		s-0.053-0.265-0.081-0.41c-0.027-0.145-0.056-0.289-0.085-0.432c-0.065-0.335-0.137-0.697-0.215-1.084h-0.029
		c-0.075,0.387-0.144,0.75-0.205,1.089c-0.026,0.143-0.053,0.288-0.081,0.435c-0.027,0.146-0.054,0.284-0.08,0.413
		s-0.05,0.245-0.07,0.349c-0.021,0.104-0.039,0.186-0.052,0.244l-0.439,1.89h-1.602l-1.47-5.459h1.479l0.552,2.417
		c0.029,0.127,0.06,0.279,0.09,0.457c0.031,0.177,0.061,0.356,0.088,0.537c0.028,0.181,0.054,0.352,0.076,0.513
		s0.041,0.289,0.054,0.383h0.029c0.003-0.062,0.011-0.143,0.022-0.242c0.011-0.099,0.024-0.206,0.041-0.32s0.033-0.23,0.051-0.349
		c0.019-0.119,0.036-0.23,0.055-0.334c0.018-0.104,0.033-0.196,0.049-0.276c0.014-0.08,0.026-0.136,0.036-0.168l0.596-2.617h1.641
		l0.571,2.617c0.017,0.072,0.037,0.182,0.063,0.332s0.053,0.31,0.081,0.481c0.027,0.171,0.051,0.337,0.07,0.498
		s0.031,0.287,0.034,0.378h0.029c0.01-0.082,0.026-0.202,0.052-0.361c0.023-0.16,0.051-0.331,0.08-0.515s0.061-0.367,0.096-0.549
		c0.033-0.182,0.065-0.337,0.095-0.464l0.571-2.417h1.46l-1.489,5.459H148.909z"/>
	<path fill="#3A3E3F" d="M152.737,22.402c0-0.14,0.021-0.256,0.063-0.349s0.1-0.167,0.174-0.225c0.072-0.057,0.159-0.097,0.258-0.12
		c0.1-0.023,0.205-0.034,0.315-0.034s0.215,0.011,0.312,0.034s0.183,0.062,0.257,0.12c0.072,0.057,0.131,0.132,0.176,0.225
		c0.043,0.093,0.065,0.209,0.065,0.349c0,0.137-0.022,0.252-0.065,0.347c-0.045,0.094-0.104,0.17-0.176,0.227
		c-0.074,0.057-0.159,0.098-0.257,0.122s-0.202,0.037-0.312,0.037s-0.216-0.012-0.315-0.037c-0.099-0.024-0.186-0.065-0.258-0.122
		c-0.074-0.057-0.132-0.133-0.174-0.227S152.737,22.539,152.737,22.402z M154.29,29.272h-1.489v-5.459h1.489V29.272z"/>
	<path fill="#3A3E3F" d="M158.069,28.184c0.146,0,0.285-0.016,0.418-0.049c0.131-0.033,0.266-0.073,0.402-0.122v1.108
		c-0.14,0.072-0.313,0.131-0.52,0.178c-0.207,0.047-0.433,0.071-0.677,0.071c-0.237,0-0.459-0.028-0.664-0.083
		s-0.383-0.152-0.532-0.291s-0.268-0.324-0.354-0.557c-0.087-0.233-0.13-0.525-0.13-0.876v-2.632h-0.713v-0.63l0.82-0.498
		l0.43-1.152h0.952v1.162h1.328v1.118h-1.328v2.632c0,0.211,0.052,0.368,0.156,0.469S157.9,28.184,158.069,28.184z"/>
	<path fill="#3A3E3F" d="M164.729,29.272h-1.489v-3.188c0-0.394-0.062-0.689-0.183-0.886c-0.123-0.197-0.311-0.295-0.564-0.295
		c-0.192,0-0.354,0.039-0.483,0.117s-0.234,0.194-0.312,0.347s-0.134,0.342-0.166,0.566s-0.049,0.482-0.049,0.771v2.568h-1.489
		v-7.598h1.489v1.548c0,0.137-0.003,0.281-0.01,0.432s-0.015,0.291-0.024,0.417c-0.013,0.15-0.024,0.296-0.034,0.439h0.078
		c0.159-0.283,0.363-0.487,0.61-0.613s0.527-0.188,0.84-0.188c0.271,0,0.516,0.038,0.734,0.115c0.221,0.077,0.408,0.196,0.564,0.359
		s0.276,0.37,0.361,0.623s0.127,0.554,0.127,0.906V29.272z"/>
	<path fill="#3A3E3F" d="M93.731,41.37c-0.391,0-0.75-0.057-1.079-0.171s-0.612-0.286-0.85-0.515s-0.422-0.519-0.554-0.869
		s-0.198-0.761-0.198-1.233c0-0.479,0.06-0.897,0.181-1.255s0.289-0.657,0.505-0.896s0.477-0.419,0.781-0.54
		s0.642-0.181,1.013-0.181c0.361,0,0.688,0.055,0.979,0.164s0.539,0.27,0.742,0.481s0.36,0.471,0.469,0.779s0.164,0.66,0.164,1.057
		v0.723h-3.33c0.006,0.208,0.04,0.396,0.1,0.564s0.145,0.309,0.254,0.425s0.241,0.204,0.396,0.266s0.331,0.093,0.53,0.093
		c0.166,0,0.323-0.009,0.471-0.027s0.292-0.045,0.432-0.081s0.278-0.081,0.415-0.134s0.277-0.116,0.42-0.188v1.152
		c-0.13,0.068-0.261,0.126-0.393,0.173s-0.271,0.087-0.417,0.12s-0.304,0.056-0.474,0.071S93.933,41.37,93.731,41.37z
		 M93.541,36.771c-0.264,0-0.482,0.093-0.657,0.278s-0.274,0.477-0.3,0.874h1.899c-0.003-0.166-0.024-0.319-0.063-0.459
		s-0.098-0.261-0.176-0.364s-0.176-0.183-0.293-0.242S93.697,36.771,93.541,36.771z"/>
	<path fill="#3A3E3F" d="M101.881,41.272h-1.49v-3.188c0-0.394-0.06-0.689-0.178-0.886s-0.309-0.295-0.569-0.295
		c-0.195,0-0.358,0.039-0.488,0.117s-0.233,0.194-0.31,0.347s-0.131,0.342-0.164,0.566s-0.049,0.482-0.049,0.771v2.568h-1.489
		v-5.459h1.138l0.2,0.698h0.083c0.078-0.14,0.173-0.26,0.286-0.361s0.235-0.184,0.369-0.249s0.275-0.113,0.425-0.144
		s0.303-0.046,0.459-0.046c0.267,0,0.509,0.038,0.728,0.115s0.406,0.196,0.562,0.359s0.276,0.37,0.361,0.623
		c0.084,0.252,0.127,0.554,0.127,0.906V41.272z"/>
	<path fill="#3A3E3F" d="M105.631,40.184c0.146,0,0.285-0.016,0.417-0.049s0.267-0.073,0.403-0.122v1.108
		c-0.141,0.072-0.314,0.131-0.521,0.178s-0.433,0.071-0.677,0.071c-0.237,0-0.459-0.028-0.664-0.083s-0.382-0.152-0.531-0.291
		c-0.15-0.138-0.268-0.324-0.354-0.557s-0.13-0.525-0.13-0.876v-2.632h-0.713v-0.63l0.82-0.498l0.43-1.152h0.953v1.162h1.328v1.118
		h-1.328v2.632c0,0.211,0.052,0.368,0.156,0.469C105.324,40.133,105.461,40.184,105.631,40.184z"/>
	<path fill="#3A3E3F" d="M112.291,41.272h-1.49v-3.188c0-0.394-0.061-0.689-0.183-0.886s-0.31-0.295-0.563-0.295
		c-0.192,0-0.354,0.039-0.484,0.117c-0.13,0.078-0.234,0.194-0.312,0.347s-0.133,0.342-0.166,0.566
		c-0.032,0.225-0.049,0.482-0.049,0.771v2.568h-1.488v-7.598h1.488v1.548c0,0.137-0.003,0.281-0.01,0.432
		c-0.006,0.151-0.014,0.291-0.023,0.417c-0.014,0.15-0.025,0.296-0.035,0.439h0.078c0.16-0.283,0.363-0.487,0.611-0.613
		c0.247-0.125,0.527-0.188,0.84-0.188c0.27,0,0.515,0.038,0.734,0.115s0.408,0.196,0.564,0.359s0.276,0.37,0.361,0.623
		c0.084,0.252,0.127,0.554,0.127,0.906V41.272z"/>
	<path fill="#3A3E3F" d="M117.394,41.272l-0.2-0.698h-0.078c-0.081,0.14-0.178,0.26-0.291,0.359
		c-0.111,0.099-0.234,0.182-0.368,0.247s-0.275,0.113-0.425,0.144s-0.303,0.046-0.459,0.046c-0.267,0-0.51-0.038-0.728-0.115
		s-0.405-0.196-0.562-0.359s-0.276-0.37-0.361-0.62s-0.127-0.552-0.127-0.903v-3.56h1.489v3.188c0,0.394,0.06,0.689,0.179,0.886
		c0.118,0.197,0.308,0.295,0.568,0.295c0.195,0,0.358-0.039,0.488-0.117s0.233-0.194,0.311-0.347
		c0.076-0.153,0.131-0.342,0.163-0.566s0.049-0.482,0.049-0.771v-2.568h1.489v5.459H117.394z"/>
	<path fill="#3A3E3F" d="M123.731,39.651c0,0.287-0.052,0.537-0.156,0.752s-0.252,0.394-0.444,0.537s-0.425,0.25-0.698,0.322
		s-0.579,0.107-0.918,0.107c-0.179,0-0.345-0.006-0.498-0.017s-0.298-0.03-0.435-0.056s-0.269-0.059-0.396-0.098
		s-0.256-0.088-0.386-0.146v-1.23c0.137,0.068,0.281,0.13,0.432,0.186c0.152,0.055,0.303,0.104,0.452,0.144s0.296,0.072,0.437,0.095
		c0.143,0.023,0.273,0.034,0.394,0.034c0.134,0,0.247-0.012,0.342-0.037s0.172-0.059,0.231-0.103
		c0.061-0.044,0.104-0.096,0.133-0.156c0.027-0.06,0.041-0.125,0.041-0.193s-0.011-0.129-0.031-0.183
		c-0.021-0.054-0.069-0.111-0.145-0.171s-0.185-0.128-0.33-0.205c-0.145-0.077-0.339-0.17-0.583-0.281
		c-0.237-0.107-0.443-0.214-0.618-0.32c-0.174-0.106-0.316-0.224-0.43-0.354c-0.111-0.13-0.195-0.279-0.251-0.447
		s-0.083-0.367-0.083-0.598c0-0.254,0.049-0.476,0.146-0.667s0.236-0.349,0.415-0.476s0.395-0.222,0.647-0.286
		c0.252-0.063,0.532-0.095,0.842-0.095c0.325,0,0.635,0.038,0.928,0.112s0.594,0.187,0.903,0.337l-0.449,1.055
		c-0.247-0.117-0.483-0.213-0.708-0.288s-0.449-0.112-0.674-0.112c-0.202,0-0.348,0.036-0.438,0.107
		c-0.089,0.072-0.134,0.169-0.134,0.293c0,0.065,0.012,0.123,0.034,0.173s0.068,0.103,0.137,0.156s0.164,0.112,0.288,0.176
		s0.285,0.141,0.483,0.232c0.231,0.101,0.439,0.201,0.625,0.3s0.345,0.212,0.479,0.339s0.236,0.275,0.308,0.444
		S123.731,39.411,123.731,39.651z"/>
	<path fill="#3A3E3F" d="M124.84,34.402c0-0.14,0.021-0.256,0.063-0.349s0.1-0.167,0.174-0.225c0.072-0.057,0.159-0.097,0.258-0.12
		c0.1-0.023,0.205-0.034,0.315-0.034s0.215,0.011,0.312,0.034s0.183,0.062,0.257,0.12c0.072,0.057,0.131,0.132,0.176,0.225
		c0.043,0.093,0.065,0.209,0.065,0.349c0,0.137-0.022,0.252-0.065,0.347c-0.045,0.094-0.104,0.17-0.176,0.227
		c-0.074,0.057-0.159,0.098-0.257,0.122s-0.202,0.037-0.312,0.037s-0.216-0.012-0.315-0.037c-0.099-0.024-0.186-0.065-0.258-0.122
		c-0.074-0.057-0.132-0.133-0.174-0.227S124.84,34.539,124.84,34.402z M126.393,41.272h-1.489v-5.459h1.489V41.272z"/>
	<path fill="#3A3E3F" d="M131.124,41.272l-0.288-0.742h-0.044c-0.107,0.146-0.215,0.272-0.322,0.378s-0.225,0.193-0.352,0.261
		s-0.27,0.119-0.427,0.151c-0.158,0.033-0.342,0.049-0.55,0.049c-0.222,0-0.427-0.035-0.615-0.105s-0.353-0.176-0.491-0.317
		c-0.138-0.142-0.246-0.321-0.324-0.537s-0.117-0.473-0.117-0.769c0-0.58,0.186-1.007,0.557-1.282s0.926-0.427,1.665-0.457
		l0.869-0.029v-0.41c0-0.225-0.065-0.391-0.195-0.498s-0.312-0.161-0.547-0.161s-0.463,0.034-0.687,0.103
		c-0.223,0.068-0.446,0.16-0.671,0.273l-0.483-0.986c0.273-0.153,0.576-0.273,0.908-0.361s0.681-0.132,1.045-0.132
		c0.681,0,1.202,0.16,1.564,0.479c0.363,0.319,0.545,0.804,0.545,1.455v3.638H131.124z M130.685,38.743l-0.493,0.02
		c-0.198,0.006-0.366,0.033-0.503,0.078s-0.247,0.106-0.329,0.183c-0.084,0.077-0.144,0.167-0.182,0.273
		c-0.037,0.106-0.056,0.224-0.056,0.354c0,0.228,0.056,0.39,0.166,0.486s0.256,0.144,0.435,0.144c0.137,0,0.264-0.023,0.381-0.071
		s0.219-0.117,0.305-0.21c0.087-0.093,0.154-0.207,0.203-0.342s0.073-0.291,0.073-0.466V38.743z"/>
	<path fill="#3A3E3F" d="M137.335,39.651c0,0.287-0.052,0.537-0.156,0.752s-0.252,0.394-0.444,0.537s-0.425,0.25-0.698,0.322
		s-0.579,0.107-0.918,0.107c-0.179,0-0.345-0.006-0.498-0.017s-0.298-0.03-0.435-0.056s-0.269-0.059-0.396-0.098
		s-0.256-0.088-0.386-0.146v-1.23c0.137,0.068,0.281,0.13,0.432,0.186c0.152,0.055,0.303,0.104,0.452,0.144s0.296,0.072,0.437,0.095
		c0.143,0.023,0.273,0.034,0.394,0.034c0.134,0,0.247-0.012,0.342-0.037s0.172-0.059,0.231-0.103
		c0.061-0.044,0.104-0.096,0.133-0.156c0.027-0.06,0.041-0.125,0.041-0.193s-0.011-0.129-0.031-0.183
		c-0.021-0.054-0.069-0.111-0.145-0.171s-0.185-0.128-0.33-0.205c-0.145-0.077-0.339-0.17-0.583-0.281
		c-0.237-0.107-0.443-0.214-0.618-0.32c-0.174-0.106-0.316-0.224-0.43-0.354c-0.111-0.13-0.195-0.279-0.251-0.447
		s-0.083-0.367-0.083-0.598c0-0.254,0.049-0.476,0.146-0.667s0.236-0.349,0.415-0.476s0.395-0.222,0.647-0.286
		c0.252-0.063,0.532-0.095,0.842-0.095c0.325,0,0.635,0.038,0.928,0.112s0.594,0.187,0.903,0.337l-0.449,1.055
		c-0.247-0.117-0.483-0.213-0.708-0.288s-0.449-0.112-0.674-0.112c-0.202,0-0.348,0.036-0.438,0.107
		c-0.089,0.072-0.134,0.169-0.134,0.293c0,0.065,0.012,0.123,0.034,0.173s0.068,0.103,0.137,0.156s0.164,0.112,0.288,0.176
		s0.285,0.141,0.483,0.232c0.231,0.101,0.439,0.201,0.625,0.3s0.345,0.212,0.479,0.339s0.236,0.275,0.308,0.444
		S137.335,39.411,137.335,39.651z"/>
	<path fill="#3A3E3F" d="M143.194,41.272h-1.489v-3.188c0-0.394-0.059-0.689-0.176-0.886s-0.301-0.295-0.552-0.295
		c-0.188,0-0.346,0.039-0.471,0.117c-0.126,0.078-0.226,0.194-0.301,0.347s-0.129,0.342-0.161,0.566s-0.049,0.482-0.049,0.771v2.568
		h-1.489v-5.459h1.138l0.2,0.698h0.083c0.078-0.14,0.172-0.26,0.28-0.361c0.109-0.101,0.229-0.184,0.359-0.249
		s0.269-0.113,0.415-0.144s0.295-0.046,0.444-0.046c0.374,0,0.692,0.064,0.955,0.193c0.262,0.128,0.463,0.331,0.603,0.608h0.122
		c0.078-0.14,0.173-0.26,0.283-0.361s0.232-0.184,0.366-0.249s0.274-0.113,0.423-0.144c0.147-0.031,0.297-0.046,0.446-0.046
		c0.586,0,1.028,0.159,1.325,0.476c0.299,0.317,0.447,0.826,0.447,1.526v3.56h-1.494v-3.188c0-0.394-0.059-0.689-0.176-0.886
		s-0.301-0.295-0.552-0.295c-0.354,0-0.607,0.141-0.757,0.422s-0.225,0.685-0.225,1.208V41.272z"/>
	<path fill="#3A3E3F" d="M153.434,35.711c0.28,0,0.535,0.06,0.767,0.181s0.43,0.299,0.596,0.537s0.296,0.532,0.388,0.884
		c0.094,0.352,0.14,0.758,0.14,1.221c0,0.469-0.046,0.88-0.14,1.233c-0.092,0.353-0.224,0.648-0.393,0.886s-0.373,0.417-0.61,0.537
		s-0.5,0.181-0.786,0.181c-0.183,0-0.344-0.02-0.486-0.059c-0.141-0.039-0.268-0.091-0.378-0.156s-0.208-0.139-0.29-0.222
		c-0.084-0.083-0.159-0.17-0.228-0.261h-0.103l-0.249,0.601h-1.138v-7.598h1.489v1.768c0,0.107-0.003,0.224-0.01,0.349
		s-0.013,0.242-0.02,0.349c-0.01,0.127-0.02,0.254-0.029,0.381h0.059c0.068-0.114,0.146-0.22,0.234-0.317s0.189-0.183,0.306-0.256
		c0.115-0.073,0.246-0.131,0.393-0.173S153.255,35.711,153.434,35.711z M152.931,36.902c-0.166,0-0.307,0.03-0.423,0.09
		c-0.115,0.06-0.209,0.15-0.28,0.271s-0.124,0.272-0.156,0.457s-0.052,0.398-0.059,0.642v0.161c0,0.264,0.016,0.498,0.046,0.703
		c0.031,0.205,0.083,0.377,0.154,0.515s0.167,0.243,0.285,0.315c0.119,0.072,0.267,0.107,0.442,0.107
		c0.296,0,0.514-0.141,0.651-0.422c0.139-0.282,0.208-0.691,0.208-1.228s-0.069-0.94-0.208-1.208
		C153.454,37.037,153.233,36.902,152.931,36.902z"/>
	<path fill="#3A3E3F" d="M155.821,35.813h1.631l0.879,3.071c0.052,0.169,0.09,0.35,0.115,0.542c0.023,0.192,0.039,0.365,0.046,0.518
		h0.029c0.007-0.075,0.016-0.158,0.026-0.249c0.012-0.091,0.025-0.184,0.042-0.278s0.035-0.188,0.056-0.281
		c0.021-0.093,0.044-0.177,0.066-0.251l0.859-3.071h1.641l-2.158,6.157c-0.202,0.576-0.477,1.004-0.825,1.284
		c-0.349,0.28-0.784,0.42-1.309,0.42c-0.169,0-0.315-0.009-0.439-0.027c-0.124-0.018-0.229-0.036-0.317-0.056V42.41
		c0.068,0.016,0.154,0.031,0.259,0.044s0.213,0.02,0.327,0.02c0.156,0,0.29-0.021,0.4-0.063s0.206-0.102,0.285-0.178
		c0.08-0.077,0.148-0.168,0.205-0.276c0.058-0.107,0.107-0.228,0.149-0.361l0.093-0.273L155.821,35.813z"/>
	<path fill="#3A3E3F" d="M166.808,40.184c0.146,0,0.285-0.016,0.418-0.049c0.131-0.033,0.266-0.073,0.402-0.122v1.108
		c-0.14,0.072-0.313,0.131-0.52,0.178c-0.207,0.047-0.433,0.071-0.677,0.071c-0.237,0-0.459-0.028-0.664-0.083
		s-0.383-0.152-0.532-0.291s-0.268-0.324-0.354-0.557c-0.087-0.233-0.13-0.525-0.13-0.876v-2.632h-0.713v-0.63l0.82-0.498
		l0.43-1.152h0.952v1.162h1.328v1.118h-1.328v2.632c0,0.211,0.052,0.368,0.156,0.469S166.639,40.184,166.808,40.184z"/>
	<path fill="#3A3E3F" d="M173.468,41.272h-1.489v-3.188c0-0.394-0.062-0.689-0.183-0.886c-0.123-0.197-0.311-0.295-0.564-0.295
		c-0.192,0-0.354,0.039-0.483,0.117s-0.234,0.194-0.312,0.347s-0.134,0.342-0.166,0.566s-0.049,0.482-0.049,0.771v2.568h-1.489
		v-7.598h1.489v1.548c0,0.137-0.003,0.281-0.01,0.432s-0.015,0.291-0.024,0.417c-0.013,0.15-0.024,0.296-0.034,0.439h0.078
		c0.159-0.283,0.363-0.487,0.61-0.613s0.527-0.188,0.84-0.188c0.271,0,0.516,0.038,0.734,0.115c0.221,0.077,0.408,0.196,0.564,0.359
		s0.276,0.37,0.361,0.623s0.127,0.554,0.127,0.906V41.272z"/>
	<path fill="#3A3E3F" d="M177.398,41.37c-0.391,0-0.75-0.057-1.079-0.171s-0.612-0.286-0.85-0.515s-0.422-0.519-0.555-0.869
		c-0.131-0.35-0.197-0.761-0.197-1.233c0-0.479,0.061-0.897,0.181-1.255s0.289-0.657,0.505-0.896
		c0.217-0.239,0.478-0.419,0.781-0.54c0.305-0.121,0.643-0.181,1.014-0.181c0.361,0,0.688,0.055,0.979,0.164
		c0.292,0.109,0.539,0.27,0.742,0.481c0.204,0.211,0.36,0.471,0.469,0.779c0.109,0.308,0.164,0.66,0.164,1.057v0.723h-3.33
		c0.007,0.208,0.04,0.396,0.1,0.564c0.061,0.167,0.146,0.309,0.254,0.425c0.109,0.116,0.241,0.204,0.396,0.266
		c0.154,0.062,0.331,0.093,0.529,0.093c0.166,0,0.323-0.009,0.471-0.027c0.148-0.018,0.293-0.045,0.433-0.081
		s0.278-0.081,0.415-0.134s0.276-0.116,0.42-0.188v1.152c-0.13,0.068-0.262,0.126-0.393,0.173c-0.133,0.047-0.271,0.087-0.418,0.12
		s-0.305,0.056-0.474,0.071S177.601,41.37,177.398,41.37z M177.208,36.771c-0.264,0-0.482,0.093-0.656,0.278
		c-0.175,0.186-0.274,0.477-0.301,0.874h1.899c-0.003-0.166-0.024-0.319-0.063-0.459s-0.098-0.261-0.176-0.364
		s-0.176-0.183-0.293-0.242S177.364,36.771,177.208,36.771z"/>
	<path fill="#3A3E3F" d="M105.781,46.134h2.09c0.449,0,0.844,0.031,1.182,0.096c0.339,0.062,0.622,0.166,0.85,0.307
		c0.229,0.143,0.4,0.328,0.516,0.557c0.115,0.23,0.174,0.513,0.174,0.848c0,0.202-0.025,0.391-0.074,0.566s-0.12,0.33-0.215,0.464
		c-0.094,0.134-0.209,0.245-0.344,0.335c-0.135,0.089-0.291,0.148-0.467,0.178v0.049c0.18,0.039,0.346,0.096,0.501,0.168
		c0.155,0.074,0.29,0.175,0.405,0.303c0.115,0.129,0.207,0.291,0.273,0.486s0.1,0.433,0.1,0.713c0,0.325-0.057,0.616-0.17,0.871
		c-0.114,0.256-0.277,0.473-0.491,0.65c-0.214,0.177-0.472,0.312-0.776,0.407s-0.648,0.142-1.033,0.142h-2.52V46.134z
		 M107.295,48.961h0.787c0.188,0,0.346-0.017,0.473-0.052c0.127-0.033,0.23-0.085,0.309-0.153s0.134-0.153,0.168-0.257
		c0.034-0.102,0.051-0.222,0.051-0.358c0-0.273-0.085-0.47-0.256-0.589c-0.171-0.118-0.441-0.178-0.812-0.178h-0.719V48.961z
		 M107.295,50.162v1.86h0.889c0.199,0,0.365-0.022,0.501-0.068s0.244-0.11,0.327-0.195s0.143-0.188,0.178-0.308
		c0.036-0.12,0.055-0.254,0.055-0.4c0-0.134-0.019-0.255-0.055-0.364c-0.035-0.108-0.096-0.202-0.183-0.28s-0.199-0.139-0.339-0.181
		c-0.141-0.042-0.314-0.063-0.523-0.063H107.295z"/>
	<path fill="#3A3E3F" d="M116.793,50.533c0,0.456-0.059,0.859-0.174,1.211s-0.281,0.647-0.498,0.889s-0.48,0.424-0.791,0.55
		c-0.311,0.125-0.66,0.188-1.047,0.188c-0.361,0-0.693-0.062-0.996-0.188c-0.303-0.126-0.564-0.309-0.783-0.55
		c-0.221-0.241-0.393-0.537-0.516-0.889c-0.124-0.352-0.186-0.755-0.186-1.211c0-0.452,0.057-0.854,0.173-1.206
		s0.282-0.646,0.499-0.887c0.215-0.238,0.479-0.42,0.787-0.544c0.311-0.124,0.66-0.186,1.051-0.186c0.361,0,0.693,0.062,0.996,0.186
		s0.564,0.306,0.783,0.544c0.221,0.24,0.391,0.535,0.516,0.887C116.73,49.679,116.793,50.081,116.793,50.533z M113.326,50.533
		c0,0.544,0.076,0.953,0.229,1.228c0.154,0.275,0.402,0.413,0.748,0.413c0.342,0,0.588-0.139,0.742-0.415
		c0.152-0.276,0.229-0.686,0.229-1.226c0-0.544-0.076-0.95-0.229-1.218c-0.154-0.27-0.404-0.403-0.752-0.403
		c-0.342,0-0.588,0.134-0.74,0.403C113.402,49.583,113.326,49.989,113.326,50.533z"/>
	<path fill="#3A3E3F" d="M120.293,52.184c0.146,0,0.285-0.017,0.418-0.049c0.131-0.032,0.266-0.073,0.402-0.122v1.108
		c-0.14,0.071-0.313,0.131-0.52,0.179c-0.207,0.047-0.433,0.07-0.677,0.07c-0.237,0-0.459-0.027-0.664-0.083
		s-0.383-0.152-0.532-0.29c-0.149-0.139-0.268-0.324-0.354-0.557c-0.087-0.233-0.13-0.525-0.13-0.877v-2.632h-0.713v-0.63
		l0.82-0.498l0.43-1.152h0.952v1.162h1.328v1.118h-1.328v2.632c0,0.212,0.052,0.368,0.156,0.469S120.124,52.184,120.293,52.184z"/>
	<path fill="#3A3E3F" d="M122.334,46.134h2.09c0.449,0,0.843,0.031,1.182,0.096c0.339,0.062,0.622,0.166,0.85,0.307
		c0.228,0.143,0.399,0.328,0.516,0.557c0.115,0.23,0.173,0.513,0.173,0.848c0,0.202-0.024,0.391-0.073,0.566s-0.12,0.33-0.215,0.464
		s-0.209,0.245-0.344,0.335c-0.136,0.089-0.291,0.148-0.467,0.178v0.049c0.179,0.039,0.346,0.096,0.5,0.168
		c0.155,0.074,0.29,0.175,0.406,0.303c0.115,0.129,0.206,0.291,0.273,0.486c0.066,0.195,0.1,0.433,0.1,0.713
		c0,0.325-0.057,0.616-0.171,0.871c-0.114,0.256-0.277,0.473-0.491,0.65c-0.213,0.177-0.472,0.312-0.775,0.407
		c-0.305,0.095-0.649,0.142-1.033,0.142h-2.52V46.134z M123.848,48.961h0.786c0.188,0,0.347-0.017,0.474-0.052
		c0.127-0.033,0.229-0.085,0.308-0.153s0.134-0.153,0.169-0.257c0.033-0.102,0.051-0.222,0.051-0.358
		c0-0.273-0.086-0.47-0.256-0.589c-0.172-0.118-0.442-0.178-0.813-0.178h-0.718V48.961z M123.848,50.162v1.86h0.889
		c0.198,0,0.365-0.022,0.5-0.068c0.136-0.046,0.244-0.11,0.328-0.195c0.082-0.085,0.142-0.188,0.178-0.308s0.054-0.254,0.054-0.4
		c0-0.134-0.018-0.255-0.054-0.364c-0.036-0.108-0.097-0.202-0.184-0.28c-0.086-0.078-0.199-0.139-0.339-0.181
		s-0.314-0.063-0.522-0.063H123.848z"/>
	<path fill="#3A3E3F" d="M133.345,50.533c0,0.456-0.058,0.859-0.174,1.211c-0.115,0.352-0.281,0.647-0.498,0.889
		c-0.216,0.241-0.479,0.424-0.791,0.55c-0.311,0.125-0.659,0.188-1.047,0.188c-0.361,0-0.693-0.062-0.996-0.188
		c-0.303-0.126-0.564-0.309-0.783-0.55c-0.221-0.241-0.392-0.537-0.516-0.889s-0.186-0.755-0.186-1.211
		c0-0.452,0.058-0.854,0.174-1.206c0.115-0.352,0.281-0.646,0.498-0.887c0.216-0.238,0.479-0.42,0.788-0.544s0.659-0.186,1.05-0.186
		c0.361,0,0.693,0.062,0.996,0.186s0.564,0.306,0.783,0.544c0.221,0.24,0.392,0.535,0.516,0.887S133.345,50.081,133.345,50.533z
		 M129.878,50.533c0,0.544,0.076,0.953,0.229,1.228c0.153,0.275,0.402,0.413,0.747,0.413c0.342,0,0.589-0.139,0.742-0.415
		s0.229-0.686,0.229-1.226c0-0.544-0.076-0.95-0.229-1.218c-0.153-0.27-0.403-0.403-0.752-0.403c-0.342,0-0.588,0.134-0.74,0.403
		C129.954,49.583,129.878,49.989,129.878,50.533z"/>
	<path fill="#3A3E3F" d="M136.846,52.184c0.146,0,0.285-0.017,0.418-0.049c0.131-0.032,0.266-0.073,0.402-0.122v1.108
		c-0.14,0.071-0.313,0.131-0.52,0.179c-0.207,0.047-0.433,0.07-0.677,0.07c-0.237,0-0.459-0.027-0.664-0.083
		s-0.383-0.152-0.532-0.29c-0.149-0.139-0.268-0.324-0.354-0.557c-0.087-0.233-0.13-0.525-0.13-0.877v-2.632h-0.713v-0.63
		l0.82-0.498l0.43-1.152h0.952v1.162h1.328v1.118h-1.328v2.632c0,0.212,0.052,0.368,0.156,0.469S136.677,52.184,136.846,52.184z"/>
	<path fill="#3A3E3F" d="M143.584,52.184c0.146,0,0.285-0.017,0.418-0.049c0.131-0.032,0.266-0.073,0.402-0.122v1.108
		c-0.14,0.071-0.313,0.131-0.52,0.179c-0.207,0.047-0.433,0.07-0.677,0.07c-0.237,0-0.459-0.027-0.664-0.083
		s-0.383-0.152-0.532-0.29c-0.149-0.139-0.268-0.324-0.354-0.557c-0.087-0.233-0.13-0.525-0.13-0.877v-2.632h-0.713v-0.63
		l0.82-0.498l0.43-1.152h0.952v1.162h1.328v1.118h-1.328v2.632c0,0.212,0.052,0.368,0.156,0.469S143.415,52.184,143.584,52.184z"/>
	<path fill="#3A3E3F" d="M147.905,53.37c-0.391,0-0.75-0.057-1.079-0.171s-0.612-0.286-0.85-0.515
		c-0.237-0.23-0.422-0.52-0.555-0.869c-0.131-0.351-0.197-0.762-0.197-1.233c0-0.479,0.061-0.896,0.181-1.255
		s0.289-0.656,0.505-0.896c0.217-0.238,0.478-0.419,0.781-0.539c0.305-0.12,0.643-0.181,1.014-0.181
		c0.361,0,0.688,0.055,0.979,0.163c0.292,0.109,0.539,0.27,0.742,0.481c0.204,0.212,0.36,0.472,0.469,0.778
		c0.109,0.309,0.164,0.66,0.164,1.058v0.723h-3.33c0.007,0.208,0.04,0.396,0.1,0.563c0.061,0.168,0.146,0.31,0.254,0.426
		c0.109,0.115,0.241,0.204,0.396,0.266c0.154,0.062,0.331,0.093,0.529,0.093c0.166,0,0.323-0.009,0.471-0.026
		c0.148-0.019,0.293-0.045,0.433-0.081s0.278-0.081,0.415-0.134c0.137-0.055,0.276-0.117,0.42-0.188v1.152
		c-0.13,0.068-0.262,0.126-0.393,0.173c-0.133,0.048-0.271,0.088-0.418,0.12s-0.305,0.056-0.474,0.071
		C148.293,53.362,148.107,53.37,147.905,53.37z M147.715,48.771c-0.264,0-0.482,0.093-0.656,0.278
		c-0.175,0.186-0.274,0.477-0.301,0.874h1.899c-0.003-0.166-0.024-0.319-0.063-0.459s-0.098-0.262-0.176-0.363
		c-0.078-0.104-0.176-0.184-0.293-0.242S147.871,48.771,147.715,48.771z"/>
	<path fill="#3A3E3F" d="M154.487,53.272l-0.288-0.742h-0.044c-0.107,0.146-0.215,0.272-0.322,0.379
		c-0.107,0.105-0.225,0.192-0.352,0.261s-0.27,0.119-0.427,0.151c-0.158,0.032-0.342,0.049-0.55,0.049
		c-0.222,0-0.427-0.035-0.615-0.105c-0.188-0.069-0.353-0.176-0.491-0.316c-0.138-0.143-0.246-0.321-0.324-0.537
		c-0.078-0.217-0.117-0.474-0.117-0.77c0-0.579,0.186-1.007,0.557-1.281c0.371-0.275,0.926-0.428,1.665-0.457l0.869-0.029v-0.41
		c0-0.225-0.065-0.391-0.195-0.498s-0.312-0.161-0.547-0.161s-0.463,0.034-0.687,0.103c-0.223,0.068-0.446,0.159-0.671,0.273
		l-0.483-0.986c0.273-0.153,0.576-0.273,0.908-0.361s0.681-0.132,1.045-0.132c0.681,0,1.202,0.159,1.564,0.479
		c0.363,0.319,0.545,0.804,0.545,1.455v3.638H154.487z M154.048,50.743l-0.493,0.02c-0.198,0.007-0.366,0.032-0.503,0.078
		s-0.247,0.106-0.329,0.184c-0.084,0.076-0.144,0.167-0.182,0.273c-0.037,0.105-0.056,0.224-0.056,0.354
		c0,0.228,0.056,0.39,0.166,0.486c0.11,0.096,0.256,0.144,0.435,0.144c0.137,0,0.264-0.023,0.381-0.071
		c0.117-0.047,0.219-0.117,0.305-0.209c0.087-0.094,0.154-0.207,0.203-0.342c0.049-0.136,0.073-0.291,0.073-0.467V50.743z"/>
	<path fill="#3A3E3F" d="M161.748,53.272h-1.489v-3.188c0-0.394-0.059-0.689-0.176-0.886c-0.117-0.197-0.301-0.296-0.552-0.296
		c-0.188,0-0.346,0.039-0.471,0.117c-0.126,0.078-0.226,0.193-0.301,0.347s-0.129,0.342-0.161,0.566s-0.049,0.481-0.049,0.771v2.568
		h-1.489v-5.459h1.138l0.2,0.698h0.083c0.078-0.14,0.172-0.261,0.28-0.361c0.109-0.101,0.229-0.184,0.359-0.249
		s0.269-0.113,0.415-0.145c0.146-0.03,0.295-0.046,0.444-0.046c0.374,0,0.692,0.064,0.955,0.192
		c0.262,0.129,0.463,0.332,0.603,0.608h0.122c0.078-0.14,0.173-0.261,0.283-0.361s0.232-0.184,0.366-0.249s0.274-0.113,0.423-0.145
		c0.147-0.03,0.297-0.046,0.446-0.046c0.586,0,1.028,0.159,1.325,0.476c0.299,0.318,0.447,0.826,0.447,1.526v3.56h-1.494v-3.188
		c0-0.394-0.059-0.689-0.176-0.886c-0.117-0.197-0.301-0.296-0.552-0.296c-0.354,0-0.607,0.141-0.757,0.423
		c-0.149,0.281-0.225,0.684-0.225,1.208V53.272z"/>
	<path fill="#3A3E3F" d="M118.094,64.574c0-0.153,0.022-0.282,0.065-0.388c0.045-0.106,0.105-0.191,0.184-0.257
		s0.169-0.112,0.273-0.142s0.217-0.044,0.337-0.044c0.114,0,0.222,0.015,0.325,0.044c0.102,0.029,0.192,0.076,0.271,0.142
		s0.14,0.15,0.186,0.257c0.046,0.105,0.068,0.234,0.068,0.388c0,0.146-0.022,0.271-0.068,0.376s-0.107,0.19-0.186,0.259
		s-0.169,0.118-0.271,0.149c-0.104,0.03-0.211,0.046-0.325,0.046c-0.12,0-0.232-0.016-0.337-0.046
		c-0.104-0.031-0.195-0.081-0.273-0.149s-0.139-0.154-0.184-0.259C118.116,64.846,118.094,64.721,118.094,64.574z"/>
	<path fill="#3A3E3F" d="M120.945,64.574c0-0.153,0.022-0.282,0.065-0.388c0.045-0.106,0.105-0.191,0.184-0.257
		s0.169-0.112,0.273-0.142s0.217-0.044,0.337-0.044c0.114,0,0.222,0.015,0.325,0.044c0.102,0.029,0.192,0.076,0.271,0.142
		s0.14,0.15,0.186,0.257c0.046,0.105,0.068,0.234,0.068,0.388c0,0.146-0.022,0.271-0.068,0.376s-0.107,0.19-0.186,0.259
		s-0.169,0.118-0.271,0.149c-0.104,0.03-0.211,0.046-0.325,0.046c-0.12,0-0.232-0.016-0.337-0.046
		c-0.104-0.031-0.195-0.081-0.273-0.149s-0.139-0.154-0.184-0.259C120.968,64.846,120.945,64.721,120.945,64.574z"/>
	<path fill="#3A3E3F" d="M123.797,64.574c0-0.153,0.022-0.282,0.065-0.388c0.045-0.106,0.105-0.191,0.184-0.257
		s0.169-0.112,0.273-0.142s0.217-0.044,0.337-0.044c0.114,0,0.222,0.015,0.325,0.044c0.102,0.029,0.192,0.076,0.271,0.142
		s0.14,0.15,0.186,0.257c0.046,0.105,0.068,0.234,0.068,0.388c0,0.146-0.022,0.271-0.068,0.376s-0.107,0.19-0.186,0.259
		s-0.169,0.118-0.271,0.149c-0.104,0.03-0.211,0.046-0.325,0.046c-0.12,0-0.232-0.016-0.337-0.046
		c-0.104-0.031-0.195-0.081-0.273-0.149s-0.139-0.154-0.184-0.259C123.819,64.846,123.797,64.721,123.797,64.574z"/>
	<path fill="#3A3E3F" d="M126.976,58.134h2.09c0.449,0,0.843,0.031,1.182,0.096c0.339,0.062,0.622,0.166,0.85,0.307
		c0.228,0.143,0.399,0.328,0.516,0.557c0.115,0.23,0.173,0.513,0.173,0.848c0,0.202-0.024,0.391-0.073,0.566s-0.12,0.33-0.215,0.464
		s-0.209,0.245-0.344,0.335c-0.136,0.089-0.291,0.148-0.467,0.178v0.049c0.179,0.039,0.346,0.096,0.5,0.168
		c0.155,0.074,0.29,0.175,0.406,0.303c0.115,0.129,0.206,0.291,0.273,0.486c0.066,0.195,0.1,0.433,0.1,0.713
		c0,0.325-0.057,0.616-0.171,0.871c-0.114,0.256-0.277,0.473-0.491,0.65c-0.213,0.177-0.472,0.312-0.775,0.407
		c-0.305,0.095-0.649,0.142-1.033,0.142h-2.52V58.134z M128.489,60.961h0.786c0.188,0,0.347-0.017,0.474-0.052
		c0.127-0.033,0.229-0.085,0.308-0.153s0.134-0.153,0.169-0.257c0.033-0.102,0.051-0.222,0.051-0.358
		c0-0.273-0.086-0.47-0.256-0.589c-0.172-0.118-0.442-0.178-0.813-0.178h-0.718V60.961z M128.489,62.162v1.86h0.889
		c0.198,0,0.365-0.022,0.5-0.068c0.136-0.046,0.244-0.11,0.328-0.195c0.082-0.085,0.142-0.188,0.178-0.308s0.054-0.254,0.054-0.4
		c0-0.134-0.018-0.255-0.054-0.364c-0.036-0.108-0.097-0.202-0.184-0.28c-0.086-0.078-0.199-0.139-0.339-0.181
		s-0.314-0.063-0.522-0.063H128.489z"/>
	<path fill="#3A3E3F" d="M135.677,65.37c-0.391,0-0.75-0.057-1.079-0.171s-0.612-0.286-0.85-0.515
		c-0.237-0.23-0.422-0.52-0.555-0.869c-0.131-0.351-0.197-0.762-0.197-1.233c0-0.479,0.061-0.896,0.181-1.255
		s0.289-0.656,0.505-0.896c0.217-0.238,0.478-0.419,0.781-0.539c0.305-0.12,0.643-0.181,1.014-0.181
		c0.361,0,0.688,0.055,0.979,0.163c0.292,0.109,0.539,0.27,0.742,0.481c0.204,0.212,0.36,0.472,0.469,0.778
		c0.109,0.309,0.164,0.66,0.164,1.058v0.723h-3.33c0.007,0.208,0.04,0.396,0.1,0.563c0.061,0.168,0.146,0.31,0.254,0.426
		c0.109,0.115,0.241,0.204,0.396,0.266c0.154,0.062,0.331,0.093,0.529,0.093c0.166,0,0.323-0.009,0.471-0.026
		c0.148-0.019,0.293-0.045,0.433-0.081s0.278-0.081,0.415-0.134c0.137-0.055,0.276-0.117,0.42-0.188v1.152
		c-0.13,0.068-0.262,0.126-0.393,0.173c-0.133,0.048-0.271,0.088-0.418,0.12s-0.305,0.056-0.474,0.071
		C136.064,65.362,135.879,65.37,135.677,65.37z M135.486,60.771c-0.264,0-0.482,0.093-0.656,0.278
		c-0.175,0.186-0.274,0.477-0.301,0.874h1.899c-0.003-0.166-0.024-0.319-0.063-0.459s-0.098-0.262-0.176-0.363
		c-0.078-0.104-0.176-0.184-0.293-0.242S135.643,60.771,135.486,60.771z"/>
	<path fill="#3A3E3F" d="M141.487,65.37c-0.391,0-0.75-0.057-1.079-0.171s-0.612-0.286-0.85-0.515
		c-0.237-0.23-0.422-0.52-0.555-0.869c-0.131-0.351-0.197-0.762-0.197-1.233c0-0.479,0.061-0.896,0.181-1.255
		s0.289-0.656,0.505-0.896c0.217-0.238,0.478-0.419,0.781-0.539c0.305-0.12,0.643-0.181,1.014-0.181
		c0.361,0,0.688,0.055,0.979,0.163c0.292,0.109,0.539,0.27,0.742,0.481c0.204,0.212,0.36,0.472,0.469,0.778
		c0.109,0.309,0.164,0.66,0.164,1.058v0.723h-3.33c0.007,0.208,0.04,0.396,0.1,0.563c0.061,0.168,0.146,0.31,0.254,0.426
		c0.109,0.115,0.241,0.204,0.396,0.266c0.154,0.062,0.331,0.093,0.529,0.093c0.166,0,0.323-0.009,0.471-0.026
		c0.148-0.019,0.293-0.045,0.433-0.081s0.278-0.081,0.415-0.134c0.137-0.055,0.276-0.117,0.42-0.188v1.152
		c-0.13,0.068-0.262,0.126-0.393,0.173c-0.133,0.048-0.271,0.088-0.418,0.12s-0.305,0.056-0.474,0.071
		C141.875,65.362,141.689,65.37,141.487,65.37z M141.297,60.771c-0.264,0-0.482,0.093-0.656,0.278
		c-0.175,0.186-0.274,0.477-0.301,0.874h1.899c-0.003-0.166-0.024-0.319-0.063-0.459s-0.098-0.262-0.176-0.363
		c-0.078-0.104-0.176-0.184-0.293-0.242S141.453,60.771,141.297,60.771z"/>
	<path fill="#3A3E3F" d="M147.771,65.37c-0.179,0-0.34-0.02-0.48-0.059c-0.143-0.039-0.269-0.091-0.379-0.156
		s-0.208-0.139-0.293-0.223c-0.085-0.082-0.161-0.17-0.229-0.261h-0.078c0.013,0.114,0.026,0.222,0.039,0.322
		c0.01,0.085,0.019,0.172,0.026,0.261c0.009,0.09,0.013,0.159,0.013,0.208v2.212H144.9v-7.861h1.211l0.21,0.708h0.068
		c0.068-0.11,0.146-0.215,0.234-0.312s0.189-0.183,0.306-0.257c0.115-0.072,0.246-0.131,0.393-0.176
		c0.146-0.043,0.31-0.065,0.488-0.065c0.283,0,0.54,0.061,0.771,0.181s0.43,0.3,0.596,0.537s0.295,0.532,0.386,0.884
		s0.137,0.759,0.137,1.221c0,0.466-0.047,0.875-0.142,1.228c-0.095,0.354-0.227,0.65-0.398,0.889c-0.17,0.24-0.374,0.42-0.609,0.54
		C148.314,65.31,148.055,65.37,147.771,65.37z M147.308,60.902c-0.166,0-0.307,0.03-0.423,0.091c-0.115,0.06-0.209,0.15-0.28,0.271
		s-0.124,0.272-0.156,0.456c-0.032,0.185-0.052,0.398-0.059,0.643v0.161c0,0.264,0.016,0.498,0.046,0.703
		c0.031,0.205,0.083,0.377,0.154,0.515c0.071,0.139,0.167,0.244,0.285,0.315c0.119,0.071,0.267,0.107,0.442,0.107
		c0.296,0,0.514-0.141,0.651-0.423c0.139-0.281,0.208-0.69,0.208-1.228s-0.069-0.94-0.208-1.208
		C147.831,61.036,147.61,60.902,147.308,60.902z"/>
	<path fill="#3A3E3F" d="M150.77,64.574c0-0.153,0.022-0.282,0.065-0.388c0.045-0.106,0.105-0.191,0.184-0.257
		s0.169-0.112,0.273-0.142s0.217-0.044,0.337-0.044c0.114,0,0.222,0.015,0.325,0.044c0.102,0.029,0.192,0.076,0.271,0.142
		s0.14,0.15,0.186,0.257c0.046,0.105,0.068,0.234,0.068,0.388c0,0.146-0.022,0.271-0.068,0.376s-0.107,0.19-0.186,0.259
		s-0.169,0.118-0.271,0.149c-0.104,0.03-0.211,0.046-0.325,0.046c-0.12,0-0.232-0.016-0.337-0.046
		c-0.104-0.031-0.195-0.081-0.273-0.149s-0.139-0.154-0.184-0.259C150.792,64.846,150.77,64.721,150.77,64.574z M152.229,62.904
		h-1.191l-0.249-4.771h1.689L152.229,62.904z"/>
</g>
</svg>
