<?xml version="1.0" encoding="utf-8"?>
<!-- Generator: Adobe Illustrator 17.0.2, SVG Export Plug-In . SVG Version: 6.00 Build 0)  -->
<!DOCTYPE svg PUBLIC "-//W3C//DTD SVG 1.1//EN" "http://www.w3.org/Graphics/SVG/1.1/DTD/svg11.dtd">
<svg version="1.1" id="Layer_1" xmlns="http://www.w3.org/2000/svg" xmlns:xlink="http://www.w3.org/1999/xlink" x="0px" y="0px"
	 width="200px" height="200px" viewBox="0 0 200 200" enable-background="new 0 0 200 200" xml:space="preserve">
<path fill="#3A3E3F" stroke="#3A3E3F" stroke-width="0.4831" stroke-miterlimit="10" d="M82.089,120.947l-14.192,5.039
	c-2.446,0.868-3.726,3.554-2.858,6c0.868,2.448,3.556,3.726,6.002,2.858l7.187-2.551c-4.332,10.025-13.562,16.497-24.557,16.497
	c-14.987,0-25.452-11.871-25.452-28.869c0-15.92,12.951-28.873,28.871-28.873c1.136,0,2.286,0.072,3.513,0.222
	c1.345,0.16,2.691-0.26,3.699-1.161c1.008-0.901,1.58-2.193,1.568-3.546l-0.01-0.378c0-19.286,15.69-34.975,34.975-34.975
	c14.092,0,26.501,8.247,32.025,20.891c-11.538,3.566-20.204,12.581-23.729,24.385l-3.178-5.116c-1.37-2.203-4.267-2.881-6.474-1.51
	c-2.205,1.37-2.881,4.269-1.51,6.474l9.358,15.052c0.856,1.381,2.313,2.163,3.821,2.218c0.903,0.033,1.825-0.193,2.651-0.705
	l16.422-10.208c2.205-1.368,2.879-4.267,1.508-6.472c-1.37-2.203-4.267-2.881-6.472-1.51l-7.075,4.397
	c3.164-10.345,11.516-17.767,22.352-19.063c7.892-0.945,16.692,2.435,22.894,9.511c0.227,0.27,0.457,0.537,0.675,0.817
	c4.951,6.352,7.675,15.285,7.675,25.153c0,19.898-19.851,33.265-38.392,33.265c-2.253,0-4.507-0.215-6.7-0.64
	c-2.551-0.493-5.016,1.173-5.507,3.719c-0.497,2.549,1.171,5.016,3.719,5.509c2.784,0.538,5.639,0.812,8.488,0.812
	c11.861,0,23.812-4.327,32.787-11.869c9.676-8.13,15.005-19.068,15.005-30.796c0.002-2.833-0.197-5.604-0.575-8.3
	c0.005-0.218,0-0.442-0.027-0.663c-0.915-7.622-3.698-14.525-7.77-20.204c-0.417-0.602-0.841-1.191-1.286-1.761
	c-4.191-5.381-9.56-9.338-15.885-11.801c-0.002,0-0.002,0-0.003,0c-4.116-1.601-8.632-2.576-13.502-2.878
	c-6.634-16.945-22.827-28.106-41.295-28.106c-22.937,0-41.867,17.493-44.145,39.841C35.772,81.864,18.82,98.949,18.82,119.919
	c0,22.176,14.657,38.271,34.853,38.271c14.994,0,27.535-8.772,33.268-22.307l2.251,6.34c0.575,1.623,1.95,2.731,3.523,3.039
	c0.802,0.158,1.655,0.108,2.48-0.182c2.446-0.868,3.726-3.556,2.856-6.004l-5.929-16.703c-0.417-1.175-1.285-2.135-2.41-2.671
	c-1.126-0.535-2.42-0.603-3.593-0.187L82.089,120.947z"/>
</svg>
