<?xml version="1.0" encoding="utf-8"?>
<!-- Generator: Adobe Illustrator 17.0.2, SVG Export Plug-In . SVG Version: 6.00 Build 0)  -->
<!DOCTYPE svg PUBLIC "-//W3C//DTD SVG 1.1//EN" "http://www.w3.org/Graphics/SVG/1.1/DTD/svg11.dtd">
<svg version="1.1" id="Layer_1" xmlns="http://www.w3.org/2000/svg" xmlns:xlink="http://www.w3.org/1999/xlink" x="0px" y="0px"
	 width="300px" height="300px" viewBox="0 0 300 300" enable-background="new 0 0 300 300" xml:space="preserve">
<path fill="none" stroke="#3A3E3F" stroke-width="2.7655" stroke-miterlimit="10" d="M106.031,100.779h-1.877
	c-3.055,0-5.531-2.476-5.531-5.531V78.859c0-3.055,2.476-5.531,5.531-5.531h1.877"/>
<path fill="none" stroke="#3A3E3F" stroke-width="2.7655" stroke-miterlimit="10" d="M193.969,73.328h1.877
	c3.055,0,5.531,2.476,5.531,5.531v16.389c0,3.055-2.476,5.531-5.531,5.531h-1.877"/>
<path fill="none" stroke="#3A3E3F" stroke-width="2.7655" stroke-miterlimit="10" d="M193.969,116.168
	c0,2.927-2.684,5.299-5.996,5.299h-75.947c-3.311,0-5.996-2.372-5.996-5.299v-58.23c0-2.927,2.684-5.299,5.996-5.299h75.947
	c3.311,0,5.996,2.372,5.996,5.299V116.168z"/>
<line fill="none" stroke="#3A3E3F" stroke-width="3.1133" stroke-miterlimit="10" x1="110.584" y1="277.445" x2="110.584" y2="227.258"/>
<line fill="none" stroke="#3D3D3D" stroke-width="3.1133" stroke-miterlimit="10" x1="133.941" y1="227.258" x2="133.941" y2="277.963"/>
<line fill="none" stroke="#3D3D3D" stroke-width="3.1133" stroke-miterlimit="10" x1="166.059" y1="277.447" x2="166.059" y2="227.258"/>
<line fill="none" stroke="#3D3D3D" stroke-width="3.1133" stroke-miterlimit="10" x1="189.416" y1="227.258" x2="189.416" y2="277.443"/>
<path fill="none" stroke="#3D3D3D" stroke-width="2.7655" stroke-miterlimit="10" d="M173.631,129.447h30.384
	c2.419,0,4.38,1.961,4.38,4.38v29.7v38.155v21.197c0,2.419-1.961,4.38-4.38,4.38H95.985c-2.419,0-4.38-1.961-4.38-4.38v-89.052
	c0-2.419,1.961-4.38,4.38-4.38h29.564H173.631z"/>
<g>
	
		<path fill="none" stroke="#3D3D3D" stroke-width="2.7655" stroke-linecap="round" stroke-linejoin="round" stroke-miterlimit="10" d="
		M133.947,277.445c-3.424-1.51-7.419-2.377-11.685-2.377c-12.699,0-22.993,7.68-22.993,17.153h45.986
		C145.255,285.93,140.716,280.43,133.947,277.445"/>
</g>
<g>
	
		<path fill="none" stroke="#3D3D3D" stroke-width="2.7655" stroke-linecap="round" stroke-linejoin="round" stroke-miterlimit="10" d="
		M189.418,277.443c-3.423-1.509-7.417-2.375-11.681-2.375c-12.699,0-22.993,7.68-22.993,17.153h45.986
		C200.73,285.929,196.189,280.428,189.418,277.443"/>
</g>
<circle fill="none" stroke="#3A3E3F" stroke-width="2.7655" stroke-linecap="round" stroke-linejoin="round" stroke-miterlimit="10" cx="129.264" cy="72.629" r="9.42"/>
<circle fill="none" stroke="#3A3E3F" stroke-width="2.7655" stroke-linecap="round" stroke-linejoin="round" stroke-miterlimit="10" cx="170.337" cy="72.629" r="9.42"/>
<line fill="none" stroke="#3A3E3F" stroke-width="2.7655" stroke-miterlimit="10" x1="156.108" y1="52.64" x2="152.65" y2="29.143"/>
<line fill="none" stroke="#3A3E3F" stroke-width="2.7655" stroke-miterlimit="10" x1="146.674" y1="29.123" x2="143.892" y2="52.64"/>
<g>
	<g>
		<g>
			<path fill="none" stroke="#3A3E3F" stroke-width="2.7655" stroke-miterlimit="10" d="M35.766,197.18
				c0-30.839,25-55.84,55.84-55.84"/>
			<path fill="none" stroke="#3A3E3F" stroke-width="2.7655" stroke-miterlimit="10" d="M51.982,197.18
				c0-21.884,17.74-39.624,39.624-39.624"/>
		</g>
		
			<path fill="none" stroke="#3A3E3F" stroke-width="2.7655" stroke-linecap="round" stroke-linejoin="round" stroke-miterlimit="10" d="
			M63.686,215.53c0-11.22-9.096-20.316-20.316-20.316s-20.316,9.096-20.316,20.316h9.296c0-6.086,4.934-11.02,11.02-11.02
			s11.02,4.934,11.02,11.02H63.686z"/>
		
			<line fill="none" stroke="#3A3E3F" stroke-width="2.7655" stroke-linejoin="round" stroke-miterlimit="10" x1="39.027" y1="178.352" x2="39.025" y2="178.352"/>
		
			<line fill="none" stroke="#3A3E3F" stroke-width="2.7655" stroke-linejoin="round" stroke-miterlimit="10" x1="37.376" y1="184.43" x2="53.306" y2="188.185"/>
		
			<line fill="none" stroke="#3A3E3F" stroke-width="2.7655" stroke-linejoin="round" stroke-miterlimit="10" x1="45.609" y1="164.91" x2="58.236" y2="175.093"/>
		
			<line fill="none" stroke="#3A3E3F" stroke-width="2.7655" stroke-linejoin="round" stroke-miterlimit="10" x1="62.303" y1="150.519" x2="69.988" y2="163.527"/>
	</g>
	
		<line fill="none" stroke="#3A3E3F" stroke-width="2.7655" stroke-linejoin="round" stroke-miterlimit="10" x1="83.321" y1="141.687" x2="83.321" y2="158.04"/>
</g>
<g>
	<g>
		<g>
			<path fill="none" stroke="#3D3D3D" stroke-width="2.7655" stroke-miterlimit="10" d="M264.234,101.105
				c0,30.839-25,55.84-55.84,55.84"/>
			<path fill="none" stroke="#3D3D3D" stroke-width="2.7655" stroke-miterlimit="10" d="M248.018,101.105
				c0,21.884-17.74,39.624-39.624,39.624"/>
		</g>
		
			<path fill="none" stroke="#3D3D3D" stroke-width="2.7655" stroke-linecap="round" stroke-linejoin="round" stroke-miterlimit="10" d="
			M236.314,82.756c0,11.22,9.096,20.316,20.316,20.316s20.316-9.096,20.316-20.316h-9.296c0,6.086-4.934,11.02-11.02,11.02
			c-6.086,0-11.02-4.934-11.02-11.02H236.314z"/>
		
			<line fill="none" stroke="#3D3D3D" stroke-width="2.7655" stroke-linejoin="round" stroke-miterlimit="10" x1="260.973" y1="119.933" x2="260.975" y2="119.933"/>
		
			<line fill="none" stroke="#3D3D3D" stroke-width="2.7655" stroke-linejoin="round" stroke-miterlimit="10" x1="262.624" y1="113.855" x2="246.694" y2="110.1"/>
		
			<line fill="none" stroke="#3D3D3D" stroke-width="2.7655" stroke-linejoin="round" stroke-miterlimit="10" x1="254.391" y1="133.375" x2="241.764" y2="123.192"/>
		
			<line fill="none" stroke="#3D3D3D" stroke-width="2.7655" stroke-linejoin="round" stroke-miterlimit="10" x1="237.697" y1="147.766" x2="230.012" y2="134.758"/>
	</g>
	
		<line fill="none" stroke="#3D3D3D" stroke-width="2.7655" stroke-linejoin="round" stroke-miterlimit="10" x1="216.679" y1="156.598" x2="216.679" y2="140.245"/>
</g>
<circle fill="#FFFFFF" stroke="#3A3E3F" stroke-width="2.7655" stroke-miterlimit="10" cx="115.904" cy="192.129" r="4.453"/>
<circle fill="#FFFFFF" stroke="#3D3D3D" stroke-width="2.7655" stroke-miterlimit="10" cx="131.835" cy="192.129" r="4.453"/>
<line fill="none" stroke="#3D3D3D" stroke-width="2.7655" stroke-linecap="round" stroke-miterlimit="10" x1="166.059" y1="165.22" x2="166.059" y2="194.563"/>
<line fill="none" stroke="#3D3D3D" stroke-width="2.7655" stroke-linecap="round" stroke-miterlimit="10" x1="179.757" y1="154.04" x2="179.757" y2="202.275"/>
<rect x="120.9" y="96.043" fill="none" stroke="#3A3E3F" stroke-width="2.7655" stroke-linecap="round" stroke-linejoin="round" stroke-miterlimit="10" width="9.42" height="13.357"/>
<rect x="137.018" y="96.043" fill="none" stroke="#3A3E3F" stroke-width="2.7655" stroke-linecap="round" stroke-linejoin="round" stroke-miterlimit="10" width="9.42" height="13.357"/>
<rect x="153.28" y="96.043" fill="none" stroke="#3A3E3F" stroke-width="2.7655" stroke-linecap="round" stroke-linejoin="round" stroke-miterlimit="10" width="9.42" height="13.357"/>
<rect x="169.181" y="96.043" fill="none" stroke="#3A3E3F" stroke-width="2.7655" stroke-linecap="round" stroke-linejoin="round" stroke-miterlimit="10" width="9.42" height="13.357"/>
<g>
	
		<rect x="112.427" y="154.651" fill="none" stroke="#3D3D3D" stroke-width="2.7655" stroke-linecap="round" stroke-linejoin="round" stroke-miterlimit="10" width="23.046" height="23.223"/>
	
		<path fill="none" stroke="#3D3D3D" stroke-width="2.7655" stroke-linecap="round" stroke-linejoin="round" stroke-miterlimit="10" d="
		M112.427,166.263c0.417-2.215,3.271-4.92,4.276-5.124c4.36-0.885,4.647,4.399,7.059,6.768c5.202,5.107,7.407-6.458,11.503-6.955"/>
</g>
<circle fill="none" stroke="#3A3E3F" stroke-width="2.7655" stroke-miterlimit="10" cx="149.693" cy="20.199" r="9.42"/>
<line fill="none" stroke="#3D3D3D" stroke-width="2.7655" stroke-miterlimit="10" x1="166.058" y1="244.516" x2="189.416" y2="244.516"/>
<line fill="none" stroke="#3D3D3D" stroke-width="2.7655" stroke-miterlimit="10" x1="110.584" y1="244.516" x2="133.941" y2="244.516"/>
<line fill="none" stroke="#3D3D3D" stroke-width="2.7655" stroke-miterlimit="10" x1="166.058" y1="261.327" x2="189.416" y2="261.327"/>
<line fill="none" stroke="#3D3D3D" stroke-width="2.7655" stroke-miterlimit="10" x1="110.584" y1="261.327" x2="133.941" y2="261.327"/>
</svg>
