<?xml version="1.0" encoding="utf-8"?>
<!-- Generator: Adobe Illustrator 17.0.2, SVG Export Plug-In . SVG Version: 6.00 Build 0)  -->
<!DOCTYPE svg PUBLIC "-//W3C//DTD SVG 1.1//EN" "http://www.w3.org/Graphics/SVG/1.1/DTD/svg11.dtd">
<svg version="1.1" id="Layer_1" xmlns="http://www.w3.org/2000/svg" xmlns:xlink="http://www.w3.org/1999/xlink" x="0px" y="0px"
	 width="200px" height="200px" viewBox="0 0 200 200" enable-background="new 0 0 200 200" xml:space="preserve">
<g>
	<g id="Your_Icon">
		<path fill="#3A3E3F" d="M158.847,63.038c-1.924-1.932-4.629-3.151-7.584-3.149H37.801c-2.955-0.002-5.659,1.217-7.584,3.149
			c-1.932,1.924-3.151,4.629-3.149,7.584v79.731c-0.002,2.955,1.217,5.659,3.149,7.584c1.924,1.932,4.629,3.151,7.584,3.149h113.463
			c2.955,0.002,5.659-1.217,7.584-3.149c1.932-1.924,3.151-4.631,3.149-7.584V70.622C161.998,67.667,160.779,64.962,158.847,63.038z
			 M153.99,146.075l-37.624-34.821l37.624-34.821V146.075z M35.415,67.895H153.65c0.419,0.002-0.413,0.161-0.114,0.454
			c0.029,0.029-1.155,1.257-1.129,1.288l-50.535,46.649c-1.575,1.461-3.776,2.251-6.018,2.249c-2.16,0.002-4.276-0.731-5.831-2.101
			L35.415,67.895 M35.075,146.305v-68.91l39.753,33.859L35.075,146.305z M36.655,153.079l42.82-37.743l6.501,5.708
			c2.8,2.455,6.36,3.623,9.876,3.625c3.646-0.002,7.335-1.259,10.178-3.875l5.814-5.366l39.482,36.446
			c-0.021,0,1.155,1.205,1.13,1.205H36.655z"/>
	</g>
	<path fill="#FFFFFF" d="M169.867,90.151c-5.602-5.819-6.823-14.429-8.003-22.755c-1.75-12.341-3.723-26.21-21.315-28.025v-2.235
		c0-2.242-1.818-4.06-4.06-4.06c-2.242,0-4.06,1.818-4.06,4.06v2.238c-17.447,1.827-19.404,15.692-21.139,28.026
		c-1.171,8.329-2.382,16.941-7.938,22.763c-1.122,1.176-1.435,2.906-0.796,4.401c0.64,1.495,2.108,2.464,3.734,2.464H123.3
		c0.091,7.198,5.968,13.028,13.188,13.028c7.221,0,13.096-5.83,13.188-13.028h17.265c1.628,0,3.099-0.972,3.737-2.472
		C171.316,93.058,170.996,91.324,169.867,90.151z"/>
	<path fill="#3A3E3F" d="M171.733,91.194c-5.917-6.145-7.205-15.239-8.452-24.032c-1.848-13.033-3.932-27.681-22.512-29.598v-2.361
		c0-2.368-1.92-4.288-4.288-4.288c-2.368,0-4.288,1.92-4.288,4.288v2.364c-18.426,1.93-20.493,16.572-22.325,29.599
		c-1.237,8.796-2.516,17.892-8.384,24.04c-1.185,1.241-1.516,3.069-0.841,4.647c0.675,1.579,2.227,2.602,3.943,2.602h17.966
		c0.096,7.602,6.303,13.759,13.928,13.759c7.626,0,13.831-6.157,13.929-13.759h18.234c1.72,0,3.273-1.027,3.946-2.611
		C173.263,94.264,172.925,92.433,171.733,91.194z M136.481,103.638c-2.895,0-5.247-2.31-5.342-5.182h5.342h5.342
		C141.728,101.328,139.376,103.638,136.481,103.638z M136.481,89.879h-23.679c3.491-6.807,4.572-14.502,5.56-21.519
		c2.13-15.153,3.79-22.437,18.119-22.437c14.484,0,16.16,7.285,18.309,22.442c0.995,7.014,2.084,14.708,5.602,21.513H136.481z"/>
</g>
</svg>
