<?xml version="1.0" encoding="utf-8"?>
<!-- Generator: Adobe Illustrator 17.0.2, SVG Export Plug-In . SVG Version: 6.00 Build 0)  -->
<!DOCTYPE svg PUBLIC "-//W3C//DTD SVG 1.1//EN" "http://www.w3.org/Graphics/SVG/1.1/DTD/svg11.dtd">
<svg version="1.1" id="Layer_1" xmlns="http://www.w3.org/2000/svg" xmlns:xlink="http://www.w3.org/1999/xlink" x="0px" y="0px"
	 width="200px" height="200px" viewBox="0 0 200 200" enable-background="new 0 0 200 200" xml:space="preserve">
<g>
	
		<path fill="#3A3E3F" stroke="#3A3E3F" stroke-width="6" stroke-linecap="round" stroke-linejoin="round" stroke-miterlimit="10" d="
		M151.17,134.825c-0.099,0.05-6.764,3.294-21.361,5.524c-7.678,1.173-17.549,2.067-29.816,2.067c-12.27,0-22.143-0.893-29.819-2.067
		c-14.591-2.229-21.244-5.467-21.32-5.504c-3.04-1.572-6.78-0.384-8.351,2.658c-1.573,3.04-0.384,6.78,2.658,8.351
		c0.707,0.366,17.763,8.957,56.833,8.957s56.126-8.591,56.833-8.957c3.041-1.572,4.249-5.322,2.677-8.361
		C157.931,134.452,154.21,133.253,151.17,134.825z"/>
	<path fill="none" stroke="#3A3E3F" stroke-width="8" stroke-linecap="round" stroke-linejoin="round" stroke-miterlimit="10" d="
		M162.25,55.891c-5.781,0-10.467,4.686-10.467,10.467c0,2.423,0.832,4.648,2.214,6.422c0.17,0.218,0.348,0.427,0.534,0.63
		l-27.644,23.326l-23.9-36.874c0.243-0.131,2.476-0.278,2.706-0.429c2.871-1.866,4.775-5.097,4.775-8.775
		c0-5.781-4.686-10.467-10.467-10.467c-5.781,0-10.467,4.686-10.467,10.467c0,3.679,1.903,6.909,4.775,8.775
		c0.231,0.151,2.463,0.298,2.706,0.429L73.114,96.736L45.47,73.41c0.186-0.204,0.366-0.413,0.534-0.63
		c1.382-1.774,2.214-3.999,2.214-6.422c0-5.781-4.686-10.467-10.467-10.467s-10.467,4.686-10.467,10.467s4.686,10.467,10.467,10.467
		c0.288,0,0.573-0.021,0.855-0.044c0.277-0.023,0.549-0.06,0.819-0.104l6.971,57.165c1.931,0.911,18.349,8.123,53.604,8.123
		s51.672-7.212,53.604-8.123l6.971-57.165c0.27,0.044,0.542,0.081,0.819,0.104c0.283,0.023,0.566,0.044,0.855,0.044
		c5.781,0,10.467-4.686,10.467-10.467C172.717,60.577,168.032,55.891,162.25,55.891z"/>
</g>
<circle fill="#3A3E3F" stroke="#3A3E3F" stroke-width="5.5569" stroke-miterlimit="10" cx="37.397" cy="68.222" r="8.073"/>
<circle fill="#3A3E3F" stroke="#3A3E3F" stroke-width="5.5569" stroke-miterlimit="10" cx="99.921" cy="51.076" r="8.073"/>
<circle fill="#3A3E3F" stroke="#3A3E3F" stroke-width="5.5569" stroke-miterlimit="10" cx="162.254" cy="67.222" r="8.073"/>
</svg>
