<?xml version="1.0" encoding="utf-8"?>
<!-- Generator: Adobe Illustrator 17.0.2, SVG Export Plug-In . SVG Version: 6.00 Build 0)  -->
<!DOCTYPE svg PUBLIC "-//W3C//DTD SVG 1.1//EN" "http://www.w3.org/Graphics/SVG/1.1/DTD/svg11.dtd">
<svg version="1.1" id="Layer_1" xmlns="http://www.w3.org/2000/svg" xmlns:xlink="http://www.w3.org/1999/xlink" x="0px" y="0px"
	 width="200px" height="200px" viewBox="0 0 200 200" enable-background="new 0 0 200 200" xml:space="preserve">
<g>
	<path fill="#3A3E3F" d="M128.939,170.891H71.06c-13.162,0-23.867-11.238-23.867-25.053v-66.99
		c0-13.814,10.707-25.055,23.867-25.055h57.879c13.162,0,23.869,11.238,23.869,25.055v66.99
		C152.807,159.653,142.1,170.891,128.939,170.891z M71.06,60.784c-9.305,0-16.878,8.102-16.878,18.064v66.99
		c0,9.961,7.571,18.062,16.878,18.062h57.879c9.307,0,16.88-8.101,16.88-18.062v-66.99c0-9.961-7.571-18.064-16.88-18.064H71.06z"/>
	<path fill="#3A3E3F" d="M125.443,66.432H74.555c-2.79,0-5.052-2.262-5.052-5.052v-9.268c0-2.79,2.262-5.052,5.052-5.052h50.89
		c2.79,0,5.052,2.262,5.052,5.052v9.268C130.497,64.17,128.235,66.432,125.443,66.432z"/>
	<path fill="#3A3E3F" d="M99.999,54.6c-7.028,0-12.745-5.717-12.745-12.745s5.717-12.747,12.745-12.747
		c7.028,0,12.747,5.717,12.747,12.747C112.746,48.881,107.027,54.6,99.999,54.6z M99.999,37.496c-2.402,0-4.357,1.955-4.357,4.357
		s1.953,4.357,4.357,4.357c2.402,0,4.357-1.953,4.357-4.357C104.357,39.45,102.401,37.496,99.999,37.496z"/>
	<path fill="#3A3E3F" d="M129.659,94.105h-59.32c-1.544,0-2.795-1.252-2.795-2.795c0-1.544,1.252-2.795,2.795-2.795h59.322
		c1.544,0,2.795,1.252,2.795,2.795C132.456,92.853,131.204,94.105,129.659,94.105z"/>
	<path fill="#3A3E3F" d="M129.659,117.068h-59.32c-1.544,0-2.795-1.25-2.795-2.795s1.252-2.795,2.795-2.795h59.322
		c1.544,0,2.795,1.25,2.795,2.795S131.204,117.068,129.659,117.068z"/>
	<path fill="#3A3E3F" d="M129.659,140.032h-59.32c-1.544,0-2.795-1.25-2.795-2.795s1.252-2.795,2.795-2.795h59.322
		c1.544,0,2.795,1.25,2.795,2.795S131.204,140.032,129.659,140.032z"/>
</g>
</svg>
