<?xml version="1.0" encoding="utf-8"?>
<!-- Generator: Adobe Illustrator 17.0.2, SVG Export Plug-In . SVG Version: 6.00 Build 0)  -->
<!DOCTYPE svg PUBLIC "-//W3C//DTD SVG 1.1//EN" "http://www.w3.org/Graphics/SVG/1.1/DTD/svg11.dtd">
<svg version="1.1" id="Layer_1" xmlns="http://www.w3.org/2000/svg" xmlns:xlink="http://www.w3.org/1999/xlink" x="0px" y="0px"
	 width="200px" height="200px" viewBox="0 0 200 200" enable-background="new 0 0 200 200" xml:space="preserve">
<g>
	<path fill="#3A3E3F" d="M100.147,169.61c-1.32,0-2.787,0-4.401-0.147l0,0c-1.467-0.147-2.934-0.293-4.401-0.44
		c-2.641-0.293-4.841-1.614-6.455-3.521c-1.614-1.907-2.641-4.254-2.641-6.895v-6.895c-1.027-0.44-2.201-0.734-3.227-1.174
		c-1.027-0.44-2.054-0.88-3.081-1.467l-4.841,4.841l0,0c-1.027,1.027-2.201,1.76-3.374,2.201l0,0
		c-1.32,0.587-2.641,0.734-3.961,0.734c-1.174,0-2.201-0.147-3.374-0.587l0,0c-1.027-0.44-2.054-0.88-3.081-1.614
		c-2.347-1.76-4.548-3.668-6.602-5.721l0,0c-2.054-2.054-3.961-4.254-5.721-6.455c-1.614-2.054-2.347-4.548-2.201-7.042
		c0.147-2.494,1.174-4.841,3.081-6.748l0,0l4.841-4.841c-0.44-1.027-1.027-2.054-1.32-3.081l0,0c-0.44-1.027-0.88-2.054-1.174-3.227
		h-6.895c-2.641,0-4.988-1.027-6.895-2.641c-1.907-1.614-3.081-3.961-3.521-6.455c-0.293-2.934-0.587-5.868-0.587-8.655
		c0-2.787,0.147-5.868,0.587-8.655c0.293-2.641,1.614-4.841,3.521-6.455s4.254-2.641,6.895-2.641h6.895
		c0.44-1.027,0.734-2.054,1.174-3.081c0.44-1.027,0.88-2.054,1.467-3.081l-4.841-4.841l0,0c-1.907-1.907-2.934-4.254-3.081-6.748
		l0,0c-0.147-2.494,0.587-4.988,2.201-7.042l0,0c1.76-2.347,3.814-4.548,5.721-6.602c2.054-2.054,4.254-3.961,6.602-5.721
		c0.88-0.734,1.907-1.174,3.081-1.614c1.174-0.44,2.201-0.587,3.374-0.587c1.32,0,2.787,0.293,3.961,0.734l0,0
		c1.32,0.587,2.347,1.32,3.374,2.201l4.841,4.841c1.027-0.44,2.054-0.88,3.081-1.32l0,0c1.027-0.44,2.054-0.88,3.227-1.174v-6.895
		c0-2.641,1.027-4.988,2.641-6.895c1.614-1.907,3.961-3.081,6.455-3.521c2.787-0.293,5.721-0.44,8.655-0.44
		c2.934,0,5.868,0.147,8.655,0.587c2.641,0.293,4.841,1.614,6.455,3.521c1.614,1.907,2.641,4.254,2.641,6.895v6.895
		c1.027,0.44,2.054,0.734,3.081,1.174l0,0c1.027,0.44,2.054,0.88,3.081,1.467l4.841-4.841l0,0c1.027-1.027,2.201-1.76,3.374-2.201
		c1.32-0.587,2.641-0.734,3.961-0.734c1.174,0,2.347,0.147,3.374,0.587l0,0c1.027,0.44,2.054,0.88,3.081,1.614l0,0
		c2.347,1.76,4.548,3.668,6.602,5.721c2.054,2.054,3.961,4.254,5.721,6.602c1.614,2.054,2.347,4.548,2.201,7.042
		s-1.174,4.841-3.081,6.748l-4.841,4.841c0.44,1.027,1.027,2.054,1.32,3.081l0,0c0.44,1.027,0.88,2.054,1.174,3.227h6.895
		c2.641,0,4.988,1.027,6.895,2.641c1.907,1.614,3.081,3.961,3.521,6.455l0,0c0.293,2.934,0.587,5.721,0.587,8.655
		c0,2.934-0.147,5.868-0.587,8.655c-0.293,2.641-1.614,4.841-3.521,6.455c-1.907,1.614-4.254,2.641-6.895,2.641h-6.895
		c-0.44,1.027-0.734,2.201-1.174,3.227l0,0c-0.44,1.027-0.88,2.054-1.32,3.081l4.841,4.841l0,0c1.907,1.907,2.934,4.254,3.081,6.748
		c0.147,2.494-0.587,4.988-2.201,7.042l0,0c-1.76,2.347-3.668,4.548-5.721,6.455l0,0c-2.054,2.054-4.254,3.961-6.602,5.721
		c-0.88,0.734-1.907,1.32-3.081,1.614l0,0c-1.174,0.44-2.201,0.587-3.374,0.587c-1.32,0-2.787-0.293-3.961-0.734l0,0
		c-1.32-0.587-2.347-1.32-3.374-2.201l0,0l-4.841-4.841c-1.027,0.44-2.054,1.027-3.081,1.32c-1.027,0.44-2.054,0.88-3.227,1.174
		v6.895c0,2.641-1.027,4.988-2.641,6.895c-1.614,1.907-3.961,3.081-6.455,3.521l0,0c-1.32,0.147-2.787,0.293-4.401,0.44l0,0
		C102.934,169.61,101.467,169.61,100.147,169.61L100.147,169.61z"/>
	<path fill="#FFFFFF" d="M75.794,136.896c0.734,0,1.614,0.147,2.494,0.293l0,0c0.734,0.147,1.614,0.44,2.347,0.88l0,0
		c1.027,0.44,2.054,1.027,3.227,1.467l0,0c1.174,0.44,2.201,0.88,3.227,1.174l0,0c2.201,0.734,3.961,2.054,5.281,3.814
		c1.32,1.76,2.054,3.961,2.054,6.161v6.602c1.907,0.147,3.961,0.293,5.868,0.293c1.907,0,3.961-0.147,5.868-0.293v-6.602
		c0-2.201,0.734-4.401,2.054-6.161l0,0c1.32-1.76,3.081-3.081,5.281-3.814l0,0c1.027-0.293,2.201-0.734,3.227-1.174
		c1.027-0.44,2.054-0.88,3.227-1.467c2.054-1.027,4.254-1.32,6.308-1.027c2.201,0.293,4.108,1.32,5.721,2.934l4.694,4.694
		c1.467-1.174,2.934-2.494,4.401-3.961l0,0c1.32-1.32,2.641-2.787,3.961-4.401l-4.694-4.694c-1.614-1.614-2.641-3.668-2.934-5.721
		s0-4.401,1.027-6.308c0.587-1.027,1.027-2.054,1.467-3.227l0,0c0.44-1.174,0.88-2.201,1.174-3.227l0,0
		c0.734-2.201,2.054-3.961,3.814-5.281l0,0c1.76-1.32,3.961-2.054,6.161-2.054h6.602c0.147-1.907,0.293-3.961,0.293-5.868
		c0-1.907-0.147-3.961-0.293-5.868h-6.602c-2.201,0-4.401-0.734-6.161-2.054l0,0c-1.76-1.32-3.081-3.081-3.814-5.281
		c-0.293-1.174-0.734-2.201-1.174-3.374c-0.44-1.027-0.88-2.054-1.467-3.227c-1.027-2.054-1.32-4.254-1.027-6.455
		c0.293-2.201,1.32-4.108,2.934-5.721l0,0l4.694-4.694c-1.32-1.614-2.494-2.934-3.961-4.401l0,0c-1.32-1.32-2.787-2.641-4.401-3.961
		l-4.694,4.694l0,0c-1.614,1.614-3.668,2.641-5.721,2.934c-2.201,0.293-4.401,0-6.308-1.027c-1.027-0.587-2.054-1.027-3.227-1.467
		c-1.027-0.44-2.201-0.88-3.374-1.174c-2.201-0.734-3.961-2.054-5.281-3.814c-1.32-1.76-2.054-3.961-2.054-6.161v-6.602
		c-1.907-0.147-3.961-0.293-5.868-0.293c-1.907,0-3.961,0.147-5.868,0.293v6.602c0,2.201-0.734,4.401-2.054,6.161
		c-1.32,1.76-3.081,3.081-5.281,3.814c-1.027,0.293-2.201,0.734-3.374,1.174c-1.027,0.44-2.201,0.88-3.227,1.467
		c-2.054,1.027-4.254,1.32-6.308,1.027c-2.201-0.293-4.254-1.32-5.721-2.934l0,0l-4.694-4.694c-1.467,1.32-2.934,2.494-4.401,3.961
		l0,0c-1.32,1.32-2.641,2.787-3.961,4.401l4.694,4.694l0,0c1.614,1.614,2.641,3.668,2.934,5.721c0.293,2.054,0,4.401-1.027,6.308
		l0,0c-0.587,1.027-1.027,2.054-1.467,3.227l0,0c-0.44,1.027-0.88,2.201-1.174,3.374l0,0c-0.734,2.201-2.054,3.961-3.814,5.281
		c-1.76,1.32-3.961,2.054-6.161,2.054H42.64c-0.147,1.907-0.293,3.961-0.293,5.868c0,1.907,0.147,3.961,0.293,5.868h6.602
		c2.201,0,4.401,0.734,6.161,2.054l0,0c1.76,1.32,3.081,3.081,3.814,5.281c0.293,1.174,0.734,2.201,1.174,3.374
		c0.44,1.027,0.88,2.054,1.467,3.227c1.027,2.054,1.32,4.254,1.027,6.455c-0.293,2.201-1.32,4.108-2.934,5.721l-4.694,4.694
		c1.174,1.467,2.494,2.934,3.961,4.401c1.32,1.32,2.787,2.641,4.401,3.961l4.694-4.694c1.027-1.027,2.201-1.76,3.374-2.201l0,0
		C73.007,137.189,74.327,136.896,75.794,136.896L75.794,136.896z"/>
	<path fill="#3A3E3F" d="M100.147,128.093c3.814,0,7.482-0.734,10.856-2.201l0,0c3.374-1.467,6.455-3.521,9.096-6.161
		c2.641-2.641,4.694-5.721,6.161-9.096s2.201-7.042,2.201-10.856s-0.734-7.482-2.201-10.856l0,0
		c-1.467-3.374-3.521-6.455-6.161-9.096l0,0c-2.641-2.641-5.721-4.694-9.096-6.161l0,0c-3.374-1.467-7.042-2.201-10.856-2.201
		s-7.482,0.734-10.856,2.201l0,0c-3.374,1.467-6.455,3.521-9.096,6.161l0,0c-2.641,2.641-4.694,5.721-6.161,9.096l0,0
		c-1.467,3.374-2.201,7.042-2.201,10.856s0.734,7.482,2.201,10.856l0,0c1.467,3.374,3.521,6.455,6.161,9.096l0,0
		c2.641,2.641,5.721,4.694,9.096,6.161l0,0C92.665,127.36,96.332,128.093,100.147,128.093L100.147,128.093z"/>
	<path fill="#FFFFFF" d="M100.147,83.643c-2.201,0-4.254,0.44-6.161,1.174c-1.907,0.734-3.668,2.054-5.281,3.521
		c-1.467,1.467-2.787,3.374-3.521,5.281l0,0c-0.734,1.907-1.174,3.961-1.174,6.161s0.44,4.254,1.174,6.161l0,0
		c0.734,1.907,2.054,3.668,3.521,5.281c1.467,1.467,3.374,2.787,5.281,3.521l0,0c1.907,0.734,3.961,1.174,6.161,1.174
		s4.254-0.44,6.161-1.174l0,0c1.907-0.734,3.668-2.054,5.281-3.521c1.467-1.614,2.787-3.374,3.521-5.281l0,0
		c0.734-1.907,1.174-3.961,1.174-6.161s-0.44-4.254-1.174-6.161l0,0c-0.734-1.907-2.054-3.668-3.521-5.281
		c-1.614-1.614-3.374-2.787-5.281-3.521C104.401,84.083,102.347,83.643,100.147,83.643z"/>
</g>
</svg>
