<?xml version="1.0" encoding="utf-8"?>
<!-- Generator: Adobe Illustrator 17.0.2, SVG Export Plug-In . SVG Version: 6.00 Build 0)  -->
<!DOCTYPE svg PUBLIC "-//W3C//DTD SVG 1.1//EN" "http://www.w3.org/Graphics/SVG/1.1/DTD/svg11.dtd">
<svg version="1.1" id="Layer_1" xmlns="http://www.w3.org/2000/svg" xmlns:xlink="http://www.w3.org/1999/xlink" x="0px" y="0px"
	 width="200px" height="200px" viewBox="0 0 200 200" enable-background="new 0 0 200 200" xml:space="preserve">
<path fill="#3A3E3F" d="M166.745,145.436c5.617,5.621,5.39,14.611-0.225,20.458c-5.842,5.617-14.841,5.617-20.458-0.227
	L75.251,93.055c-6.077-5.846-9.668-7.646-14.614-6.073c-4.947,1.799-11.919,1.799-18.44-2.474
	c-13.936-8.989-13.032-25.852-13.032-25.852l1.122-1.8c0,0,12.588,8.094,14.162,8.995c2.026,1.573,8.99,4.721,15.284-4.947
	c6.521-9.668,1.131-15.735-0.669-16.861c-1.574-0.9-14.162-9.214-14.162-9.214l1.122-1.801c0,0,14.614-7.42,28.324,0.674
	c0,0.452,3.374,2.474,4.721,3.599c8.772,7.868,8.772,16.636,7.198,23.83c-1.356,6.521,0,8.768,5.165,14.389L166.745,145.436z
	 M161.572,150.158c-2.922-2.925-7.643-2.925-10.789,0c-2.695,2.922-2.695,7.868,0,10.562c3.147,2.926,7.868,3.374,10.789,0.227
	C164.494,158.25,164.494,153.078,161.572,150.158z"/>
</svg>
