<?xml version="1.0" encoding="utf-8"?>
<!-- Generator: Adobe Illustrator 17.0.2, SVG Export Plug-In . SVG Version: 6.00 Build 0)  -->
<!DOCTYPE svg PUBLIC "-//W3C//DTD SVG 1.1//EN" "http://www.w3.org/Graphics/SVG/1.1/DTD/svg11.dtd">
<svg version="1.1" id="Layer_1" xmlns="http://www.w3.org/2000/svg" xmlns:xlink="http://www.w3.org/1999/xlink" x="0px" y="0px"
	 width="200px" height="200px" viewBox="0 0 200 200" enable-background="new 0 0 200 200" xml:space="preserve">
<g>
	<g>
		<path fill="#3A3E3F" stroke="#3A3E3F" stroke-width="1.6564" stroke-miterlimit="10" d="M152.096,82.321h-0.007
			c-0.736-15.138-6.123-29.259-15.304-40.012c-9.837-11.518-22.898-17.864-36.788-17.864c-13.883,0-26.944,6.347-36.781,17.864
			c-9.181,10.753-14.561,24.874-15.297,40.012c-0.007,0-0.007,0-0.007,0c-2.099,0-3.887,1.096-5.034,3.08
			c-3.152,5.452-1.183,17.013,2.676,23.699c2.43,4.205,5.481,6.527,8.849,6.743c9.224,19.516,26.569,31.574,45.594,31.574
			c19.032,0,36.384-12.058,45.601-31.574c8.128-0.555,13.09-13.623,13.09-23.05C158.688,83.078,153.64,82.321,152.096,82.321z
			 M151.433,105.147c-1.68,3.613-3.959,6.21-6.375,6.21c-0.18,0-0.353-0.014-0.541-0.043c-1.002-0.151-1.983,0.389-2.394,1.313
			c-8.308,18.679-24.449,30.283-42.125,30.283c-17.669,0-33.81-11.604-42.118-30.283c-0.361-0.822-1.176-1.334-2.055-1.334
			c-0.108,0-0.224,0.007-0.332,0.029c-0.188,0.022-0.368,0.036-0.548,0.036c-2.503,0-4.515-2.827-5.488-4.515
			c-3.7-6.411-4.565-15.91-2.676-19.191c0.476-0.822,0.902-0.822,1.132-0.822c0.339,0,0.779,0.115,1.269,0.332
			c0.397,0.173,0.837,0.231,1.255,0.159h0.05c1.01-0.159,25.249-4.284,43.856-17.143c7.666-5.301,14.157-10.349,19.782-15.39
			c8.02,13.998,22.299,29.793,35.382,32.533h0.05c0.426,0.072,0.865,0.014,1.269-0.159c0.49-0.216,0.923-0.332,1.269-0.332
			c1.226,0,2.084,2.452,2.084,5.964C154.181,96.889,153.106,101.527,151.433,105.147z"/>
	</g>
	<g>
		<circle fill="#FFFFFF" cx="127.807" cy="148.394" r="25.81"/>
		<g>
			<path fill="#3A3E3F" d="M134.105,121.882c0.296-0.759,0.456-1.585,0.456-2.448c0-3.757-3.045-6.802-6.803-6.802
				c-3.755,0-6.803,3.045-6.803,6.803c0,0.863,0.16,1.689,0.456,2.448c-11.967,2.857-20.864,13.62-20.864,26.463
				c0,15.027,12.183,27.21,27.21,27.21s27.21-12.183,27.21-27.21C154.969,135.503,146.072,124.74,134.105,121.882z M124.358,119.434
				c0-1.878,1.524-3.401,3.401-3.401s3.401,1.523,3.401,3.401c0,0.683-0.201,1.318-0.548,1.849c-0.936-0.099-1.89-0.148-2.853-0.148
				s-1.917,0.049-2.853,0.148C124.559,120.752,124.358,120.117,124.358,119.434z M149.867,148.345
				c0,12.188-9.864,22.072-22.042,22.108l-0.018,0.079l-0.02-0.079c-0.009,0-0.018,0-0.028,0c-12.188,0-22.072-9.864-22.108-22.044
				l-0.079-0.02l0.079-0.018c0-0.009,0-0.016,0-0.026c0-12.188,9.864-22.073,22.044-22.108l0.004-0.003l0.014-0.075l0.02,0.078
				c0.009,0,0.016,0,0.026,0c12.188,0,22.072,9.863,22.108,22.044l0.079,0.019l-0.079,0.019
				C149.867,148.328,149.867,148.336,149.867,148.345z"/>
			<path fill="#3A3E3F" d="M141.781,145.421c0.277,0.926,0.428,1.908,0.428,2.924c0,0.982-0.142,1.929-0.399,2.827l12.303-2.853
				c0-0.012,0-0.026,0-0.038L141.781,145.421z"/>
			<path fill="#3A3E3F" d="M127.759,162.796c-0.98,0-1.929-0.142-2.827-0.399l2.855,12.303c0.013,0,0.026,0,0.038,0l2.858-12.332
				C129.757,162.645,128.776,162.796,127.759,162.796z"/>
			<path fill="#3A3E3F" d="M114.157,148.345c0-0.98,0.142-1.929,0.399-2.827l-12.303,2.853c0,0.011,0,0.026,0,0.038l12.333,2.861
				C114.308,150.344,114.157,149.363,114.157,148.345z"/>
			<path fill="#3A3E3F" d="M127.759,133.894c0.983,0,1.93,0.142,2.827,0.398l-2.853-12.303c-0.012,0-0.026,0-0.038,0l-2.86,12.332
				C125.76,134.045,126.743,133.894,127.759,133.894z"/>
			<path fill="#3A3E3F" d="M116.831,136.411c-2.211-1.514-2.741-0.973-1.175,1.204l8.167,11.359
				c-0.247-1.246,0.087-2.524,1.061-3.521c0.973-0.996,2.244-1.36,3.495-1.141L116.831,136.411z"/>
			<path fill="#3A3E3F" d="M130.637,151.073c-0.974,0.996-2.248,1.358-3.502,1.138l11.553,7.903c2.209,1.515,2.74,0.974,1.175-1.206
				l-8.169-11.359C131.941,148.795,131.607,150.076,130.637,151.073z"/>
			<circle fill="#3A3E3F" cx="127.792" cy="148.214" r="5.109"/>
		</g>
	</g>
</g>
</svg>
