<?xml version="1.0" encoding="utf-8"?>
<!-- Generator: Adobe Illustrator 17.0.2, SVG Export Plug-In . SVG Version: 6.00 Build 0)  -->
<!DOCTYPE svg PUBLIC "-//W3C//DTD SVG 1.1//EN" "http://www.w3.org/Graphics/SVG/1.1/DTD/svg11.dtd">
<svg version="1.1" id="Layer_1" xmlns="http://www.w3.org/2000/svg" xmlns:xlink="http://www.w3.org/1999/xlink" x="0px" y="0px"
	 width="200px" height="200px" viewBox="0 0 200 200" enable-background="new 0 0 200 200" xml:space="preserve">
<g>
	<path fill="#3A3E3F" stroke="#3A3E3F" stroke-width="2" stroke-miterlimit="10" d="M162.041,95.642h-0.009
		c-0.888-18.278-7.393-35.327-18.478-48.311c-11.877-13.906-27.647-21.569-44.418-21.569c-16.762,0-32.532,7.663-44.41,21.569
		C43.642,60.314,37.146,77.364,36.257,95.642c-0.009,0-0.009,0-0.009,0c-2.534,0-4.693,1.324-6.078,3.718
		c-3.805,6.583-1.428,20.542,3.231,28.614c2.935,5.077,6.618,7.881,10.684,8.142c11.137,23.563,32.079,38.123,55.051,38.123
		c22.98,0,43.931-14.559,55.059-38.123c9.814-0.671,15.805-16.449,15.805-27.83C170,96.556,163.905,95.642,162.041,95.642z
		 M161.24,123.202c-2.029,4.363-4.781,7.497-7.698,7.497c-0.218,0-0.427-0.017-0.653-0.052c-1.21-0.183-2.395,0.47-2.891,1.585
		c-10.031,22.553-29.519,36.564-50.862,36.564c-21.334,0-40.822-14.011-50.853-36.564c-0.435-0.993-1.419-1.611-2.482-1.611
		c-0.131,0-0.27,0.009-0.401,0.035c-0.226,0.026-0.444,0.044-0.662,0.044c-3.022,0-5.451-3.413-6.627-5.451
		c-4.467-7.741-5.512-19.209-3.231-23.171c0.575-0.993,1.088-0.993,1.367-0.993c0.409,0,0.94,0.139,1.533,0.401
		c0.479,0.209,1.01,0.279,1.515,0.192h0.061c1.219-0.192,30.486-5.172,52.952-20.698c9.256-6.4,17.093-12.496,23.885-18.582
		c9.683,16.902,26.924,35.972,42.72,39.281h0.061c0.514,0.087,1.045,0.017,1.533-0.192c0.592-0.261,1.115-0.401,1.533-0.401
		c1.48,0,2.517,2.961,2.517,7.201C164.558,113.231,163.26,118.831,161.24,123.202z"/>
</g>
</svg>
