<?xml version="1.0" encoding="utf-8"?>
<!DOCTYPE svg PUBLIC "-//W3C//DTD SVG 1.1//EN" "http://www.w3.org/Graphics/SVG/1.1/DTD/svg11.dtd">
<svg version="1.1" id="Layer_1" xmlns="http://www.w3.org/2000/svg" xmlns:xlink="http://www.w3.org/1999/xlink" x="0px" y="0px"
	 height="60px" viewBox="0 0 270.883 270.415" enable-background="new 0 0 270.883 270.415"
	 xml:space="preserve">
<g>
	<path fill="#74CCD5" d="M135.215,3.053c73.319,0,132.609,59.291,132.609,132.156c0,72.865-59.29,132.152-132.61,132.152
		c-72.864,0-132.155-59.287-132.155-132.152C3.059,62.344,62.35,3.053,135.215,3.053z"/>
	<g>
		<path fill="#FFFFFF" d="M65.971,180.016c0,5.432,2.262,9.957,6.336,13.131c2.713,1.805,5.883,2.713,9.502,2.713
			c5.887,0,9.957-2.266,13.125-6.789l28.968-40.283c1.811-2.713,2.713-5.881,2.713-9.506V90.403c0-4.523-1.355-8.146-4.523-11.312
			c-3.169-3.167-6.789-4.527-11.313-4.527c-4.527,0-8.601,1.359-11.767,4.527c-2.718,3.168-4.528,6.789-4.528,11.312v40.733
			c0,2.262-0.451,4.073-1.356,5.883l-24.44,33.492C66.873,173.68,65.971,176.399,65.971,180.016z"/>
		<path fill="#FFFFFF" d="M143.816,139.281c0,3.625,1.355,6.793,3.167,9.506l28.968,40.283c3.167,4.523,7.237,6.789,13.125,6.789
			c3.167,0,6.334-0.908,9.048-2.713c4.527-3.174,6.789-7.699,6.789-13.131c0-3.617-0.901-6.336-3.167-9.504l-23.986-33.492
			c-0.905-1.811-1.356-3.621-1.356-5.883V90.403c0-4.523-1.811-8.146-4.978-11.312c-3.172-3.168-6.791-4.527-11.317-4.527
			c-4.524,0-8.146,1.359-11.314,4.527c-3.167,3.168-4.978,6.789-4.978,11.312V139.281z"/>
	</g>
</g>
</svg>