<?xml version="1.0" encoding="utf-8"?>
<!-- Generator: Adobe Illustrator 14.0.0, SVG Export Plug-In . SVG Version: 6.00 Build 43363)  -->
<!DOCTYPE svg PUBLIC "-//W3C//DTD SVG 1.1//EN" "http://www.w3.org/Graphics/SVG/1.1/DTD/svg11.dtd">
<svg version="1.1" id="Layer_1" xmlns="http://www.w3.org/2000/svg" xmlns:xlink="http://www.w3.org/1999/xlink" x="0px" y="0px"
	 width="16px" height="16px" viewBox="0 0 16 16" enable-background="new 0 0 16 16" xml:space="preserve">
<path fill="#FFFFFF" stroke="#A9C6C1" stroke-width="2" d="M14.56,11.322c0,1.523-1.234,2.758-2.758,2.758H4.199
	c-1.523,0-2.758-1.234-2.758-2.758V4.677c0-1.523,1.235-2.758,2.758-2.758h7.603c1.523,0,2.758,1.235,2.758,2.758V11.322z"/>
<g>
	<path fill="#A9C6C1" d="M6.781,7.969c0,0.656-0.532,1.188-1.188,1.188l0,0c-0.656,0-1.188-0.531-1.188-1.188l0,0
		c0-0.656,0.532-1.188,1.188-1.188l0,0C6.25,6.781,6.781,7.313,6.781,7.969L6.781,7.969z"/>
	<path fill="#A9C6C1" d="M11.219,8.031c0,0.656-0.531,1.188-1.188,1.188l0,0c-0.656,0-1.188-0.531-1.188-1.188l0,0
		c0-0.656,0.531-1.188,1.188-1.188l0,0C10.688,6.844,11.219,7.375,11.219,8.031L11.219,8.031z"/>
</g>
</svg>
